<svg xmlns="http://www.w3.org/2000/svg" xmlns:xlink="http://www.w3.org/1999/xlink" width="500" zoomAndPan="magnify" viewBox="0 0 375 374.999991" height="500" preserveAspectRatio="xMidYMid meet" version="1.0"><defs><g/><clipPath id="id1"><path d="M 14 228.296875 L 361 228.296875 L 361 244.046875 L 14 244.046875 Z M 14 228.296875 " clip-rule="nonzero"/></clipPath></defs><g clip-path="url(#id1)"><path fill="#000000" d="M 360.453125 228.296875 L 360.453125 244.054688 L 345.003906 244.054688 L 345.003906 237.28125 L 14.503906 237.28125 L 14.503906 235.0625 L 345.003906 235.0625 L 345.003906 228.296875 Z M 360.453125 228.296875 " fill-opacity="1" fill-rule="nonzero"/></g><g fill="#000000" fill-opacity="0.2"><g transform="translate(72.837417, 199.068395)"><g><path d="M 8.3125 -40.71875 C 8.3125 -40.875 8.269531 -41.101562 8.1875 -41.40625 C 8.113281 -41.71875 8.039062 -42.039062 7.96875 -42.375 C 7.894531 -42.707031 7.816406 -43.015625 7.734375 -43.296875 C 7.660156 -43.578125 7.625 -43.796875 7.625 -43.953125 C 7.519531 -44.316406 7.46875 -44.597656 7.46875 -44.796875 C 7.46875 -45.003906 7.46875 -45.210938 7.46875 -45.421875 C 7.46875 -45.828125 7.519531 -46.15625 7.625 -46.40625 C 7.726562 -46.664062 7.90625 -47.054688 8.15625 -47.578125 L 7.234375 -62.96875 L 7.625 -67.28125 C 7.726562 -67.4375 7.828125 -67.613281 7.921875 -67.8125 C 8.023438 -67.96875 8.101562 -68.109375 8.15625 -68.234375 C 8.207031 -68.367188 8.257812 -68.488281 8.3125 -68.59375 C 8.769531 -69.664062 9.128906 -70.6875 9.390625 -71.65625 C 9.648438 -72.632812 9.957031 -73.664062 10.3125 -74.75 C 10.570312 -75.769531 10.703125 -76.742188 10.703125 -77.671875 C 10.703125 -78.796875 10.90625 -79.71875 11.3125 -80.4375 C 11.976562 -81.976562 12.734375 -83.453125 13.578125 -84.859375 C 14.429688 -86.273438 15.472656 -87.9375 16.703125 -89.84375 C 16.804688 -89.988281 16.910156 -90.148438 17.015625 -90.328125 C 17.117188 -90.515625 17.222656 -90.6875 17.328125 -90.84375 C 17.785156 -91.507812 18.28125 -92.25 18.8125 -93.0625 C 19.351562 -93.882812 19.648438 -94.347656 19.703125 -94.453125 C 20.316406 -95.378906 20.921875 -96.070312 21.515625 -96.53125 C 22.109375 -96.988281 22.816406 -97.601562 23.640625 -98.375 C 25.378906 -99.707031 26.914062 -100.9375 28.25 -102.0625 C 29.582031 -103.195312 31.175781 -104.332031 33.03125 -105.46875 L 34.953125 -106.3125 C 35.410156 -106.46875 35.921875 -106.6875 36.484375 -106.96875 C 37.046875 -107.25 37.632812 -107.539062 38.25 -107.84375 C 38.875 -108.15625 39.46875 -108.4375 40.03125 -108.6875 C 40.59375 -108.945312 41.101562 -109.15625 41.5625 -109.3125 L 49.421875 -110.390625 C 49.628906 -110.390625 49.960938 -110.46875 50.421875 -110.625 C 50.878906 -110.78125 51.210938 -110.984375 51.421875 -111.234375 C 53.628906 -111.285156 55.398438 -111.335938 56.734375 -111.390625 C 58.066406 -111.441406 59.320312 -111.46875 60.5 -111.46875 C 62.09375 -111.46875 63.660156 -111.441406 65.203125 -111.390625 C 66.742188 -111.335938 68.285156 -111.285156 69.828125 -111.234375 C 70.796875 -110.984375 71.585938 -110.789062 72.203125 -110.65625 C 72.816406 -110.53125 73.300781 -110.425781 73.65625 -110.34375 C 74.019531 -110.269531 74.28125 -110.234375 74.4375 -110.234375 C 74.59375 -110.234375 74.75 -110.234375 74.90625 -110.234375 C 75.519531 -110.285156 76.019531 -110.320312 76.40625 -110.34375 C 76.789062 -110.375 77.148438 -110.390625 77.484375 -110.390625 C 77.816406 -110.390625 78.1875 -110.390625 78.59375 -110.390625 C 79.007812 -110.390625 79.550781 -110.390625 80.21875 -110.390625 C 80.78125 -110.078125 81.394531 -109.640625 82.0625 -109.078125 C 82.726562 -108.515625 83.34375 -108.234375 83.90625 -108.234375 C 84.113281 -108.234375 84.316406 -108.3125 84.515625 -108.46875 C 84.722656 -108.625 84.878906 -108.703125 84.984375 -108.703125 L 89.53125 -108.703125 C 90.195312 -108.796875 90.820312 -109.007812 91.40625 -109.34375 C 92 -109.675781 92.585938 -110.035156 93.171875 -110.421875 C 93.765625 -110.804688 94.34375 -111.140625 94.90625 -111.421875 C 95.476562 -111.710938 96.125 -111.859375 96.84375 -111.859375 C 97.71875 -111.859375 98.472656 -111.585938 99.109375 -111.046875 C 99.753906 -110.503906 100.078125 -109.722656 100.078125 -108.703125 L 100.078125 -95.921875 C 100.128906 -95.660156 100.203125 -95.25 100.296875 -94.6875 C 100.398438 -94.125 100.453125 -93.710938 100.453125 -93.453125 C 100.921875 -90.992188 101.460938 -88.46875 102.078125 -85.875 C 102.691406 -83.28125 103 -80.753906 103 -78.296875 C 102.945312 -77.984375 102.816406 -77.644531 102.609375 -77.28125 C 102.410156 -76.925781 102.164062 -76.59375 101.875 -76.28125 C 101.59375 -75.976562 101.320312 -75.710938 101.0625 -75.484375 C 100.8125 -75.253906 100.609375 -75.140625 100.453125 -75.140625 C 100.453125 -75.035156 100.273438 -74.984375 99.921875 -74.984375 C 98.890625 -74.984375 98.003906 -75.210938 97.265625 -75.671875 C 96.523438 -76.128906 95.894531 -76.71875 95.375 -77.4375 C 94.863281 -78.15625 94.476562 -78.925781 94.21875 -79.75 C 93.96875 -80.570312 93.789062 -81.34375 93.6875 -82.0625 L 93.6875 -84.609375 C 93.582031 -85.316406 93.441406 -85.890625 93.265625 -86.328125 C 93.085938 -86.765625 92.867188 -87.148438 92.609375 -87.484375 C 92.347656 -87.816406 92.050781 -88.160156 91.71875 -88.515625 C 91.382812 -88.878906 91.015625 -89.34375 90.609375 -89.90625 C 90.046875 -90.476562 89.710938 -91.109375 89.609375 -91.796875 C 89.503906 -92.492188 89.222656 -93.203125 88.765625 -93.921875 C 88.660156 -94.117188 88.425781 -94.320312 88.0625 -94.53125 C 87.707031 -94.738281 87.476562 -94.84375 87.375 -94.84375 L 82.453125 -98.375 C 82.453125 -98.425781 82.332031 -98.566406 82.09375 -98.796875 C 81.863281 -99.035156 81.617188 -99.296875 81.359375 -99.578125 C 81.109375 -99.859375 80.867188 -100.125 80.640625 -100.375 C 80.410156 -100.632812 80.269531 -100.816406 80.21875 -100.921875 C 79.644531 -101.234375 79.335938 -101.390625 79.296875 -101.390625 C 79.191406 -101.285156 78.832031 -101.234375 78.21875 -101.234375 C 77.851562 -101.234375 77.671875 -101.285156 77.671875 -101.390625 C 76.597656 -101.585938 75.554688 -101.914062 74.546875 -102.375 C 73.546875 -102.84375 72.640625 -103.304688 71.828125 -103.765625 L 62.515625 -104.15625 C 62.148438 -104.5625 61.785156 -104.816406 61.421875 -104.921875 C 61.066406 -105.023438 60.632812 -105.078125 60.125 -105.078125 C 58.375 -105.078125 56.882812 -104.921875 55.65625 -104.609375 C 54.425781 -104.304688 53.296875 -103.875 52.265625 -103.3125 C 52.210938 -103.207031 52.160156 -103.128906 52.109375 -103.078125 C 52.015625 -102.972656 51.914062 -102.921875 51.8125 -102.921875 C 51.09375 -102.359375 50.304688 -101.921875 49.453125 -101.609375 C 48.609375 -101.304688 47.75 -101.015625 46.875 -100.734375 C 46.007812 -100.453125 45.148438 -100.144531 44.296875 -99.8125 C 43.453125 -99.476562 42.671875 -99 41.953125 -98.375 L 39.03125 -95.921875 C 38.976562 -95.816406 38.71875 -95.597656 38.25 -95.265625 C 37.789062 -94.929688 37.535156 -94.660156 37.484375 -94.453125 C 37.234375 -93.890625 36.796875 -93.363281 36.171875 -92.875 C 35.554688 -92.382812 35.148438 -92.085938 34.953125 -91.984375 C 34.535156 -91.421875 34.238281 -90.816406 34.0625 -90.171875 C 33.882812 -89.535156 33.691406 -89.164062 33.484375 -89.0625 L 31.71875 -86.53125 L 29.5625 -81.59375 L 28.5625 -77.140625 C 28.507812 -77.035156 28.390625 -76.851562 28.203125 -76.59375 C 28.023438 -76.332031 27.820312 -76.0625 27.59375 -75.78125 C 27.363281 -75.5 27.132812 -75.253906 26.90625 -75.046875 C 26.675781 -74.847656 26.507812 -74.75 26.40625 -74.75 C 26.40625 -74.695312 26.378906 -74.488281 26.328125 -74.125 C 26.273438 -73.769531 26.234375 -73.347656 26.203125 -72.859375 C 26.179688 -72.367188 26.144531 -71.878906 26.09375 -71.390625 C 26.039062 -70.910156 26.015625 -70.539062 26.015625 -70.28125 L 26.015625 -68.203125 L 26.40625 -60.359375 L 27.328125 -56.578125 L 26.40625 -52.34375 C 26.40625 -49.882812 26.738281 -47.421875 27.40625 -44.953125 C 28.070312 -42.492188 28.789062 -40.109375 29.5625 -37.796875 C 29.664062 -37.742188 30.128906 -37.128906 30.953125 -35.953125 L 31.71875 -33.796875 C 31.875 -33.378906 32.101562 -32.976562 32.40625 -32.59375 C 32.71875 -32.21875 33.066406 -31.847656 33.453125 -31.484375 C 33.835938 -31.128906 34.207031 -30.796875 34.5625 -30.484375 C 34.925781 -30.171875 35.234375 -29.863281 35.484375 -29.5625 C 35.742188 -28.632812 35.925781 -27.988281 36.03125 -27.625 C 36.132812 -27.269531 36.234375 -27.03125 36.328125 -26.90625 C 36.429688 -26.78125 36.5625 -26.675781 36.71875 -26.59375 C 36.875 -26.519531 37.128906 -26.300781 37.484375 -25.9375 C 37.847656 -25.789062 38.144531 -25.546875 38.375 -25.203125 C 38.601562 -24.867188 38.820312 -24.5 39.03125 -24.09375 C 39.238281 -23.6875 39.441406 -23.273438 39.640625 -22.859375 C 39.847656 -22.453125 40.128906 -22.117188 40.484375 -21.859375 C 41.460938 -21.703125 42.296875 -21.609375 42.984375 -21.578125 C 43.679688 -21.554688 44.3125 -21.238281 44.875 -20.625 C 46.113281 -19.601562 47.269531 -18.71875 48.34375 -17.96875 C 49.414062 -17.226562 50.503906 -16.585938 51.609375 -16.046875 C 52.710938 -15.503906 53.878906 -15.039062 55.109375 -14.65625 C 56.347656 -14.28125 57.738281 -13.960938 59.28125 -13.703125 L 63.28125 -12.546875 C 64.613281 -12.546875 65.703125 -12.738281 66.546875 -13.125 C 67.390625 -13.507812 68.222656 -13.703125 69.046875 -13.703125 C 69.816406 -13.703125 70.535156 -13.429688 71.203125 -12.890625 C 71.867188 -12.359375 72.613281 -12.09375 73.4375 -12.09375 C 74.101562 -12.09375 74.65625 -12.304688 75.09375 -12.734375 C 75.53125 -13.171875 76.082031 -13.492188 76.75 -13.703125 C 76.851562 -13.703125 77.171875 -13.753906 77.703125 -13.859375 C 78.242188 -13.960938 78.59375 -14.039062 78.75 -14.09375 C 78.957031 -14.09375 79.289062 -14.21875 79.75 -14.46875 C 80.207031 -14.726562 80.539062 -14.960938 80.75 -15.171875 C 82.5 -15.421875 83.613281 -15.632812 84.09375 -15.8125 C 84.582031 -16 84.878906 -16.09375 84.984375 -16.09375 C 85.035156 -16.144531 85.160156 -16.257812 85.359375 -16.4375 C 85.566406 -16.613281 85.785156 -16.816406 86.015625 -17.046875 C 86.253906 -17.273438 86.472656 -17.503906 86.671875 -17.734375 C 86.878906 -17.972656 87.035156 -18.144531 87.140625 -18.25 C 87.347656 -18.25 87.679688 -18.375 88.140625 -18.625 C 88.597656 -18.882812 89.097656 -19.191406 89.640625 -19.546875 C 90.179688 -19.910156 90.71875 -20.269531 91.25 -20.625 C 91.789062 -20.988281 92.242188 -21.273438 92.609375 -21.484375 C 92.867188 -21.628906 93.046875 -21.816406 93.140625 -22.046875 C 93.242188 -22.285156 93.425781 -22.53125 93.6875 -22.78125 C 94.457031 -23.863281 95.226562 -24.660156 96 -25.171875 C 96.769531 -25.679688 97.585938 -26.476562 98.453125 -27.5625 C 98.660156 -27.757812 98.957031 -28.078125 99.34375 -28.515625 C 99.726562 -28.953125 99.972656 -29.300781 100.078125 -29.5625 C 100.128906 -29.664062 100.242188 -29.984375 100.421875 -30.515625 C 100.597656 -31.054688 100.789062 -31.351562 101 -31.40625 C 101.664062 -31.96875 102.304688 -32.351562 102.921875 -32.5625 C 103.535156 -32.769531 104.175781 -32.875 104.84375 -32.875 C 105.207031 -32.875 105.53125 -32.71875 105.8125 -32.40625 C 106.09375 -32.101562 106.320312 -31.742188 106.5 -31.328125 C 106.675781 -30.921875 106.816406 -30.472656 106.921875 -29.984375 C 107.023438 -29.492188 107.078125 -29.097656 107.078125 -28.796875 C 107.078125 -27.765625 106.84375 -26.847656 106.375 -26.046875 C 105.914062 -25.253906 105.40625 -24.5 104.84375 -23.78125 C 104.28125 -23.0625 103.726562 -22.332031 103.1875 -21.59375 C 102.65625 -20.851562 102.285156 -19.992188 102.078125 -19.015625 C 101.867188 -18.859375 101.53125 -18.585938 101.0625 -18.203125 C 100.601562 -17.816406 100.144531 -17.394531 99.6875 -16.9375 C 99.226562 -16.476562 98.789062 -16.03125 98.375 -15.59375 C 97.96875 -15.15625 97.710938 -14.832031 97.609375 -14.625 C 96.484375 -13.132812 95.457031 -12.09375 94.53125 -11.5 C 93.601562 -10.914062 92.734375 -10.316406 91.921875 -9.703125 C 91.554688 -9.234375 91.285156 -8.753906 91.109375 -8.265625 C 90.929688 -7.785156 90.53125 -7.414062 89.90625 -7.15625 C 89.1875 -6.75 88.378906 -6.378906 87.484375 -6.046875 C 86.585938 -5.710938 85.628906 -5.414062 84.609375 -5.15625 C 82.960938 -4.132812 81.5 -3.441406 80.21875 -3.078125 C 78.9375 -2.722656 77.597656 -2.3125 76.203125 -1.84375 L 73.125 -0.15625 C 70.40625 0 68.53125 0.21875 67.5 0.5 C 66.476562 0.78125 65.867188 0.921875 65.671875 0.921875 C 64.023438 0.867188 62.90625 0.726562 62.3125 0.5 C 61.726562 0.269531 61.332031 0.15625 61.125 0.15625 L 56.34375 1.6875 C 55.78125 1.632812 55.175781 1.582031 54.53125 1.53125 C 53.894531 1.488281 53.269531 1.425781 52.65625 1.34375 C 52.039062 1.269531 51.472656 1.164062 50.953125 1.03125 C 50.441406 0.90625 50.0625 0.738281 49.8125 0.53125 C 48.425781 0.175781 46.988281 -0.078125 45.5 -0.234375 C 44.007812 -0.390625 42.570312 -0.800781 41.1875 -1.46875 L 35.484375 -3.6875 C 35.378906 -3.789062 35.070312 -3.90625 34.5625 -4.03125 C 34.050781 -4.164062 33.691406 -4.234375 33.484375 -4.234375 C 31.992188 -6.179688 31.148438 -7.15625 30.953125 -7.15625 L 29.09375 -7.15625 C 28.6875 -7.414062 28.210938 -7.914062 27.671875 -8.65625 C 27.128906 -9.40625 26.578125 -10.238281 26.015625 -11.15625 C 26.015625 -11.78125 25.664062 -12.164062 24.96875 -12.3125 C 24.28125 -12.46875 23.679688 -12.546875 23.171875 -12.546875 C 22.859375 -12.703125 22.648438 -12.921875 22.546875 -13.203125 C 22.453125 -13.484375 22.363281 -13.789062 22.28125 -14.125 C 22.207031 -14.457031 22.117188 -14.800781 22.015625 -15.15625 C 21.910156 -15.519531 21.734375 -15.832031 21.484375 -16.09375 C 21.378906 -16.34375 21.117188 -16.710938 20.703125 -17.203125 C 20.296875 -17.691406 19.960938 -18.039062 19.703125 -18.25 C 19.347656 -18.445312 19.066406 -18.597656 18.859375 -18.703125 C 18.648438 -18.804688 18.46875 -18.894531 18.3125 -18.96875 C 18.164062 -19.050781 18.015625 -19.179688 17.859375 -19.359375 C 17.703125 -19.535156 17.5 -19.832031 17.25 -20.25 L 15.3125 -23.171875 L 13.625 -25.015625 C 13.625 -26.816406 13.492188 -28.078125 13.234375 -28.796875 C 12.984375 -29.515625 12.804688 -29.898438 12.703125 -29.953125 C 12.703125 -30.148438 12.632812 -30.59375 12.5 -31.28125 C 12.375 -31.976562 12.257812 -32.378906 12.15625 -32.484375 C 11.132812 -32.941406 10.492188 -33.273438 10.234375 -33.484375 C 10.035156 -33.640625 9.882812 -33.742188 9.78125 -33.796875 Z M 8.3125 -40.71875 "/></g></g></g><g fill="#000000" fill-opacity="0.2"><g transform="translate(185.615033, 199.068395)"><g><path d="M 7.546875 -38.640625 C 7.546875 -39.304688 7.722656 -39.957031 8.078125 -40.59375 C 8.441406 -41.238281 8.625 -41.945312 8.625 -42.71875 L 6.625 -51.265625 C 6.625 -52.753906 6.710938 -54.421875 6.890625 -56.265625 C 7.066406 -58.117188 7.285156 -59.738281 7.546875 -61.125 C 7.953125 -62.40625 8.285156 -63.773438 8.546875 -65.234375 C 8.804688 -66.703125 9.007812 -68.164062 9.15625 -69.625 C 9.3125 -71.09375 9.414062 -72.476562 9.46875 -73.78125 C 9.519531 -75.09375 9.546875 -76.210938 9.546875 -77.140625 C 10.109375 -77.859375 10.671875 -78.472656 11.234375 -78.984375 C 11.804688 -79.492188 12.320312 -79.992188 12.78125 -80.484375 C 13.238281 -80.972656 13.617188 -81.535156 13.921875 -82.171875 C 14.234375 -82.816406 14.46875 -83.628906 14.625 -84.609375 L 18.859375 -88.984375 L 20.859375 -89.90625 C 21.171875 -90.0625 21.53125 -90.421875 21.9375 -90.984375 C 22.351562 -91.554688 22.773438 -92.210938 23.203125 -92.953125 C 23.640625 -93.691406 24.078125 -94.410156 24.515625 -95.109375 C 24.953125 -95.804688 25.375 -96.332031 25.78125 -96.6875 C 28.707031 -98.789062 31.59375 -100.738281 34.4375 -102.53125 C 37.289062 -104.332031 40.410156 -106.078125 43.796875 -107.765625 C 44.054688 -107.816406 44.316406 -107.894531 44.578125 -108 C 44.828125 -108.050781 45.066406 -108.101562 45.296875 -108.15625 C 45.535156 -108.207031 45.726562 -108.234375 45.875 -108.234375 C 46.695312 -108.335938 47.363281 -108.53125 47.875 -108.8125 C 48.394531 -109.09375 48.882812 -109.375 49.34375 -109.65625 C 49.800781 -109.9375 50.300781 -110.191406 50.84375 -110.421875 C 51.382812 -110.660156 52.039062 -110.78125 52.8125 -110.78125 L 56.578125 -110.15625 L 57.734375 -110.78125 L 60.578125 -111.625 C 62.890625 -111.925781 65.132812 -112.101562 67.3125 -112.15625 C 69.5 -112.207031 71.722656 -112.234375 73.984375 -112.234375 C 74.703125 -112.234375 75.894531 -112.078125 77.5625 -111.765625 C 79.226562 -111.460938 80.972656 -111.09375 82.796875 -110.65625 C 84.617188 -110.21875 86.296875 -109.769531 87.828125 -109.3125 C 89.367188 -108.851562 90.398438 -108.492188 90.921875 -108.234375 C 92.398438 -107.203125 93.742188 -105.96875 94.953125 -104.53125 C 96.160156 -103.101562 97.429688 -101.875 98.765625 -100.84375 C 99.585938 -100.226562 100.394531 -99.710938 101.1875 -99.296875 C 101.988281 -98.890625 102.769531 -98.492188 103.53125 -98.109375 C 104.300781 -97.722656 105.070312 -97.3125 105.84375 -96.875 C 106.613281 -96.4375 107.359375 -95.882812 108.078125 -95.21875 C 108.335938 -95.125 108.644531 -94.921875 109 -94.609375 C 109.363281 -94.296875 109.722656 -93.945312 110.078125 -93.5625 C 110.441406 -93.1875 110.765625 -92.828125 111.046875 -92.484375 C 111.328125 -92.148438 111.546875 -91.910156 111.703125 -91.765625 L 112.234375 -89.375 C 112.335938 -88.757812 112.609375 -88.179688 113.046875 -87.640625 C 113.484375 -87.097656 113.96875 -86.554688 114.5 -86.015625 C 115.039062 -85.484375 115.554688 -84.957031 116.046875 -84.4375 C 116.535156 -83.925781 116.859375 -83.390625 117.015625 -82.828125 C 117.421875 -82.210938 117.878906 -81.429688 118.390625 -80.484375 C 118.910156 -79.535156 119.425781 -78.519531 119.9375 -77.4375 C 120.445312 -76.363281 120.878906 -75.300781 121.234375 -74.25 C 121.597656 -73.195312 121.832031 -72.285156 121.9375 -71.515625 L 121.9375 -66.96875 C 122.144531 -66.101562 122.335938 -65.410156 122.515625 -64.890625 C 122.691406 -64.378906 122.960938 -63.84375 123.328125 -63.28125 C 123.523438 -62.71875 123.703125 -62.164062 123.859375 -61.625 C 124.015625 -61.082031 124.09375 -60.375 124.09375 -59.5 C 124.09375 -59.40625 124.066406 -59.226562 124.015625 -58.96875 C 123.960938 -58.707031 123.921875 -58.421875 123.890625 -58.109375 C 123.867188 -57.804688 123.832031 -57.515625 123.78125 -57.234375 C 123.726562 -56.953125 123.703125 -56.734375 123.703125 -56.578125 L 124.484375 -54.578125 L 124.09375 -51.265625 C 124.195312 -51.015625 124.25 -50.707031 124.25 -50.34375 C 124.25 -49.988281 124.25 -49.578125 124.25 -49.109375 C 124.25 -47.472656 124.144531 -46.023438 123.9375 -44.765625 C 123.726562 -43.503906 123.523438 -42.695312 123.328125 -42.34375 C 122.753906 -40.695312 122.109375 -39.179688 121.390625 -37.796875 C 120.679688 -36.410156 119.941406 -35.035156 119.171875 -33.671875 C 118.398438 -32.316406 117.640625 -30.921875 116.890625 -29.484375 C 116.148438 -28.046875 115.445312 -26.476562 114.78125 -24.78125 C 114.46875 -24.476562 114.15625 -24.25 113.84375 -24.09375 C 113.539062 -23.9375 113.234375 -23.804688 112.921875 -23.703125 C 112.617188 -23.609375 112.3125 -23.457031 112 -23.25 C 111.695312 -23.039062 111.414062 -22.757812 111.15625 -22.40625 C 111 -22.144531 110.832031 -21.804688 110.65625 -21.390625 C 110.476562 -20.984375 110.273438 -20.535156 110.046875 -20.046875 C 109.816406 -19.566406 109.570312 -19.09375 109.3125 -18.625 C 109.050781 -18.164062 108.769531 -17.78125 108.46875 -17.46875 L 106.921875 -16.546875 C 106.515625 -16.546875 106.117188 -16.351562 105.734375 -15.96875 C 105.347656 -15.582031 105.15625 -15.238281 105.15625 -14.9375 C 104.789062 -14.46875 104.273438 -13.835938 103.609375 -13.046875 C 102.941406 -12.253906 102.222656 -11.429688 101.453125 -10.578125 C 100.691406 -9.734375 99.953125 -8.953125 99.234375 -8.234375 C 98.515625 -7.515625 97.921875 -6.976562 97.453125 -6.625 C 97.097656 -6.414062 96.789062 -6.234375 96.53125 -6.078125 C 96.28125 -5.972656 96.035156 -5.867188 95.796875 -5.765625 C 95.566406 -5.671875 95.398438 -5.625 95.296875 -5.625 L 86.75 -2.6875 C 86.394531 -2.28125 86.140625 -1.960938 85.984375 -1.734375 C 85.828125 -1.503906 85.671875 -1.335938 85.515625 -1.234375 C 85.367188 -1.128906 85.191406 -1.035156 84.984375 -0.953125 C 84.773438 -0.878906 84.441406 -0.789062 83.984375 -0.6875 L 78.90625 -0.234375 L 73.4375 2.15625 C 72.976562 2.257812 72.515625 2.335938 72.046875 2.390625 C 71.640625 2.441406 71.21875 2.476562 70.78125 2.5 C 70.34375 2.53125 69.921875 2.546875 69.515625 2.546875 C 68.953125 2.546875 68.269531 2.476562 67.46875 2.34375 C 66.675781 2.21875 65.84375 2.078125 64.96875 1.921875 C 64.09375 1.765625 63.234375 1.597656 62.390625 1.421875 C 61.546875 1.242188 60.789062 1.078125 60.125 0.921875 C 59.09375 0.660156 58.007812 0.503906 56.875 0.453125 C 55.75 0.410156 54.625 0.390625 53.5 0.390625 C 51.550781 0.390625 49.675781 0.320312 47.875 0.1875 C 46.082031 0.0625 44.3125 -0.359375 42.5625 -1.078125 L 41.421875 -2.6875 C 40.847656 -2.84375 40.175781 -2.957031 39.40625 -3.03125 C 38.644531 -3.113281 37.863281 -3.234375 37.0625 -3.390625 C 36.269531 -3.546875 35.523438 -3.75 34.828125 -4 C 34.140625 -4.257812 33.613281 -4.644531 33.25 -5.15625 C 32.476562 -6.082031 31.863281 -6.863281 31.40625 -7.5 C 30.945312 -8.144531 30.484375 -8.710938 30.015625 -9.203125 C 29.554688 -9.691406 28.976562 -10.148438 28.28125 -10.578125 C 27.59375 -11.015625 26.632812 -11.492188 25.40625 -12.015625 L 23.015625 -12.546875 C 22.503906 -12.804688 21.941406 -13.316406 21.328125 -14.078125 C 20.710938 -14.847656 20.09375 -15.75 19.46875 -16.78125 C 18.851562 -17.8125 18.222656 -18.914062 17.578125 -20.09375 C 16.941406 -21.269531 16.367188 -22.410156 15.859375 -23.515625 C 15.347656 -24.617188 14.882812 -25.609375 14.46875 -26.484375 C 14.0625 -27.359375 13.753906 -28.023438 13.546875 -28.484375 C 13.085938 -29.710938 12.507812 -30.597656 11.8125 -31.140625 C 11.125 -31.679688 10.472656 -32.191406 9.859375 -32.671875 C 9.242188 -33.160156 8.703125 -33.816406 8.234375 -34.640625 C 7.773438 -35.460938 7.546875 -36.796875 7.546875 -38.640625 Z M 23.78125 -55.8125 C 23.78125 -54.78125 23.972656 -53.828125 24.359375 -52.953125 C 24.742188 -52.085938 25.191406 -51.242188 25.703125 -50.421875 C 26.222656 -49.597656 26.703125 -48.773438 27.140625 -47.953125 C 27.578125 -47.140625 27.84375 -46.242188 27.9375 -45.265625 C 28.039062 -45.109375 28.09375 -44.800781 28.09375 -44.34375 L 27.9375 -40.640625 C 27.9375 -40.179688 27.988281 -39.671875 28.09375 -39.109375 C 28.195312 -38.546875 28.457031 -37.976562 28.875 -37.40625 C 29.175781 -36.84375 29.503906 -36.445312 29.859375 -36.21875 C 30.222656 -35.988281 30.570312 -35.757812 30.90625 -35.53125 C 31.238281 -35.300781 31.546875 -35.03125 31.828125 -34.71875 C 32.109375 -34.40625 32.328125 -33.914062 32.484375 -33.25 L 32.5625 -32.484375 C 32.5625 -32.128906 32.546875 -31.796875 32.515625 -31.484375 C 32.492188 -31.171875 32.484375 -30.707031 32.484375 -30.09375 C 32.484375 -29.226562 32.613281 -28.507812 32.875 -27.9375 C 33.070312 -27.375 33.453125 -27.015625 34.015625 -26.859375 C 34.585938 -26.710938 35.050781 -26.40625 35.40625 -25.9375 C 36.175781 -23.9375 36.945312 -22.28125 37.71875 -20.96875 C 38.488281 -19.664062 39.539062 -18.453125 40.875 -17.328125 C 42.675781 -15.890625 44.507812 -14.5 46.375 -13.15625 C 48.25 -11.820312 50.1875 -10.628906 52.1875 -9.578125 C 54.1875 -8.523438 56.289062 -7.691406 58.5 -7.078125 C 60.707031 -6.460938 63.046875 -6.15625 65.515625 -6.15625 C 66.179688 -6.15625 66.742188 -6.207031 67.203125 -6.3125 C 67.660156 -6.414062 68.109375 -6.539062 68.546875 -6.6875 C 68.984375 -6.84375 69.429688 -7 69.890625 -7.15625 C 70.359375 -7.3125 70.925781 -7.46875 71.59375 -7.625 C 73.03125 -7.820312 74.660156 -8.0625 76.484375 -8.34375 C 78.304688 -8.632812 79.960938 -8.78125 81.453125 -8.78125 C 82.523438 -9.59375 83.726562 -10.359375 85.0625 -11.078125 C 86.394531 -11.796875 87.710938 -12.550781 89.015625 -13.34375 C 90.328125 -14.144531 91.535156 -15.03125 92.640625 -16 C 93.742188 -16.976562 94.628906 -18.132812 95.296875 -19.46875 L 99.3125 -27.5625 C 100.019531 -28.070312 100.539062 -28.738281 100.875 -29.5625 C 101.21875 -30.382812 101.488281 -31.226562 101.6875 -32.09375 C 101.894531 -32.96875 102.113281 -33.84375 102.34375 -34.71875 C 102.570312 -35.59375 102.96875 -36.363281 103.53125 -37.03125 L 105.15625 -47.65625 C 105.15625 -48.46875 105.085938 -49.234375 104.953125 -49.953125 C 104.828125 -50.671875 104.765625 -51.546875 104.765625 -52.578125 L 105.6875 -55.125 C 105.6875 -55.9375 105.492188 -56.921875 105.109375 -58.078125 C 104.734375 -59.234375 104.273438 -60.414062 103.734375 -61.625 C 103.191406 -62.832031 102.640625 -64.007812 102.078125 -65.15625 C 101.515625 -66.3125 101.023438 -67.273438 100.609375 -68.046875 L 99.84375 -69.359375 L 100.234375 -71.515625 C 100.234375 -72.285156 100.101562 -72.960938 99.84375 -73.546875 C 99.582031 -74.140625 99.296875 -74.679688 98.984375 -75.171875 C 98.679688 -75.660156 98.375 -76.144531 98.0625 -76.625 C 97.757812 -77.113281 97.554688 -77.671875 97.453125 -78.296875 L 96.765625 -82.0625 C 96.304688 -83.5 95.359375 -85.175781 93.921875 -87.09375 C 92.484375 -89.019531 90.863281 -90.90625 89.0625 -92.75 C 87.269531 -94.601562 85.445312 -96.234375 83.59375 -97.640625 C 81.75 -99.054688 80.1875 -99.945312 78.90625 -100.3125 C 78.132812 -100.5625 77.082031 -100.710938 75.75 -100.765625 C 74.414062 -100.816406 73.335938 -100.84375 72.515625 -100.84375 L 70.515625 -103.3125 C 70.148438 -103.457031 69.519531 -103.671875 68.625 -103.953125 C 67.726562 -104.242188 66.78125 -104.53125 65.78125 -104.8125 C 64.78125 -105.09375 63.789062 -105.320312 62.8125 -105.5 C 61.84375 -105.675781 61.097656 -105.765625 60.578125 -105.765625 C 59.554688 -105.765625 58.234375 -105.660156 56.609375 -105.453125 C 54.992188 -105.253906 53.335938 -104.945312 51.640625 -104.53125 C 49.953125 -104.125 48.390625 -103.613281 46.953125 -103 C 45.515625 -102.382812 44.460938 -101.664062 43.796875 -100.84375 L 43.421875 -99.609375 C 43.003906 -99.304688 42.578125 -99.0625 42.140625 -98.875 C 41.710938 -98.695312 41.304688 -98.492188 40.921875 -98.265625 C 40.535156 -98.035156 40.195312 -97.753906 39.90625 -97.421875 C 39.625 -97.085938 39.410156 -96.585938 39.265625 -95.921875 C 38.078125 -95.609375 37.265625 -95.320312 36.828125 -95.0625 C 36.398438 -94.8125 36.09375 -94.53125 35.90625 -94.21875 C 35.726562 -93.914062 35.535156 -93.570312 35.328125 -93.1875 C 35.128906 -92.800781 34.671875 -92.328125 33.953125 -91.765625 C 31.953125 -90.429688 30.332031 -88.710938 29.09375 -86.609375 C 27.863281 -84.503906 26.925781 -82.21875 26.28125 -79.75 C 25.644531 -77.289062 25.210938 -74.765625 24.984375 -72.171875 C 24.753906 -69.578125 24.640625 -67.175781 24.640625 -64.96875 L 25.015625 -59.5 C 25.015625 -59.039062 24.804688 -58.488281 24.390625 -57.84375 C 23.984375 -57.207031 23.78125 -56.53125 23.78125 -55.8125 Z M 23.78125 -55.8125 "/></g></g></g><g fill="#000000" fill-opacity="1"><g transform="translate(65.869401, 192.100377)"><g><path d="M 8.3125 -40.71875 C 8.3125 -40.875 8.269531 -41.101562 8.1875 -41.40625 C 8.113281 -41.71875 8.039062 -42.039062 7.96875 -42.375 C 7.894531 -42.707031 7.816406 -43.015625 7.734375 -43.296875 C 7.660156 -43.578125 7.625 -43.796875 7.625 -43.953125 C 7.519531 -44.316406 7.46875 -44.597656 7.46875 -44.796875 C 7.46875 -45.003906 7.46875 -45.210938 7.46875 -45.421875 C 7.46875 -45.828125 7.519531 -46.15625 7.625 -46.40625 C 7.726562 -46.664062 7.90625 -47.054688 8.15625 -47.578125 L 7.234375 -62.96875 L 7.625 -67.28125 C 7.726562 -67.4375 7.828125 -67.613281 7.921875 -67.8125 C 8.023438 -67.96875 8.101562 -68.109375 8.15625 -68.234375 C 8.207031 -68.367188 8.257812 -68.488281 8.3125 -68.59375 C 8.769531 -69.664062 9.128906 -70.6875 9.390625 -71.65625 C 9.648438 -72.632812 9.957031 -73.664062 10.3125 -74.75 C 10.570312 -75.769531 10.703125 -76.742188 10.703125 -77.671875 C 10.703125 -78.796875 10.90625 -79.71875 11.3125 -80.4375 C 11.976562 -81.976562 12.734375 -83.453125 13.578125 -84.859375 C 14.429688 -86.273438 15.472656 -87.9375 16.703125 -89.84375 C 16.804688 -89.988281 16.910156 -90.148438 17.015625 -90.328125 C 17.117188 -90.515625 17.222656 -90.6875 17.328125 -90.84375 C 17.785156 -91.507812 18.28125 -92.25 18.8125 -93.0625 C 19.351562 -93.882812 19.648438 -94.347656 19.703125 -94.453125 C 20.316406 -95.378906 20.921875 -96.070312 21.515625 -96.53125 C 22.109375 -96.988281 22.816406 -97.601562 23.640625 -98.375 C 25.378906 -99.707031 26.914062 -100.9375 28.25 -102.0625 C 29.582031 -103.195312 31.175781 -104.332031 33.03125 -105.46875 L 34.953125 -106.3125 C 35.410156 -106.46875 35.921875 -106.6875 36.484375 -106.96875 C 37.046875 -107.25 37.632812 -107.539062 38.25 -107.84375 C 38.875 -108.15625 39.46875 -108.4375 40.03125 -108.6875 C 40.59375 -108.945312 41.101562 -109.15625 41.5625 -109.3125 L 49.421875 -110.390625 C 49.628906 -110.390625 49.960938 -110.46875 50.421875 -110.625 C 50.878906 -110.78125 51.210938 -110.984375 51.421875 -111.234375 C 53.628906 -111.285156 55.398438 -111.335938 56.734375 -111.390625 C 58.066406 -111.441406 59.320312 -111.46875 60.5 -111.46875 C 62.09375 -111.46875 63.660156 -111.441406 65.203125 -111.390625 C 66.742188 -111.335938 68.285156 -111.285156 69.828125 -111.234375 C 70.796875 -110.984375 71.585938 -110.789062 72.203125 -110.65625 C 72.816406 -110.53125 73.300781 -110.425781 73.65625 -110.34375 C 74.019531 -110.269531 74.28125 -110.234375 74.4375 -110.234375 C 74.59375 -110.234375 74.75 -110.234375 74.90625 -110.234375 C 75.519531 -110.285156 76.019531 -110.320312 76.40625 -110.34375 C 76.789062 -110.375 77.148438 -110.390625 77.484375 -110.390625 C 77.816406 -110.390625 78.1875 -110.390625 78.59375 -110.390625 C 79.007812 -110.390625 79.550781 -110.390625 80.21875 -110.390625 C 80.78125 -110.078125 81.394531 -109.640625 82.0625 -109.078125 C 82.726562 -108.515625 83.34375 -108.234375 83.90625 -108.234375 C 84.113281 -108.234375 84.316406 -108.3125 84.515625 -108.46875 C 84.722656 -108.625 84.878906 -108.703125 84.984375 -108.703125 L 89.53125 -108.703125 C 90.195312 -108.796875 90.820312 -109.007812 91.40625 -109.34375 C 92 -109.675781 92.585938 -110.035156 93.171875 -110.421875 C 93.765625 -110.804688 94.34375 -111.140625 94.90625 -111.421875 C 95.476562 -111.710938 96.125 -111.859375 96.84375 -111.859375 C 97.71875 -111.859375 98.472656 -111.585938 99.109375 -111.046875 C 99.753906 -110.503906 100.078125 -109.722656 100.078125 -108.703125 L 100.078125 -95.921875 C 100.128906 -95.660156 100.203125 -95.25 100.296875 -94.6875 C 100.398438 -94.125 100.453125 -93.710938 100.453125 -93.453125 C 100.921875 -90.992188 101.460938 -88.46875 102.078125 -85.875 C 102.691406 -83.28125 103 -80.753906 103 -78.296875 C 102.945312 -77.984375 102.816406 -77.644531 102.609375 -77.28125 C 102.410156 -76.925781 102.164062 -76.59375 101.875 -76.28125 C 101.59375 -75.976562 101.320312 -75.710938 101.0625 -75.484375 C 100.8125 -75.253906 100.609375 -75.140625 100.453125 -75.140625 C 100.453125 -75.035156 100.273438 -74.984375 99.921875 -74.984375 C 98.890625 -74.984375 98.003906 -75.210938 97.265625 -75.671875 C 96.523438 -76.128906 95.894531 -76.71875 95.375 -77.4375 C 94.863281 -78.15625 94.476562 -78.925781 94.21875 -79.75 C 93.96875 -80.570312 93.789062 -81.34375 93.6875 -82.0625 L 93.6875 -84.609375 C 93.582031 -85.316406 93.441406 -85.890625 93.265625 -86.328125 C 93.085938 -86.765625 92.867188 -87.148438 92.609375 -87.484375 C 92.347656 -87.816406 92.050781 -88.160156 91.71875 -88.515625 C 91.382812 -88.878906 91.015625 -89.34375 90.609375 -89.90625 C 90.046875 -90.476562 89.710938 -91.109375 89.609375 -91.796875 C 89.503906 -92.492188 89.222656 -93.203125 88.765625 -93.921875 C 88.660156 -94.117188 88.425781 -94.320312 88.0625 -94.53125 C 87.707031 -94.738281 87.476562 -94.84375 87.375 -94.84375 L 82.453125 -98.375 C 82.453125 -98.425781 82.332031 -98.566406 82.09375 -98.796875 C 81.863281 -99.035156 81.617188 -99.296875 81.359375 -99.578125 C 81.109375 -99.859375 80.867188 -100.125 80.640625 -100.375 C 80.410156 -100.632812 80.269531 -100.816406 80.21875 -100.921875 C 79.644531 -101.234375 79.335938 -101.390625 79.296875 -101.390625 C 79.191406 -101.285156 78.832031 -101.234375 78.21875 -101.234375 C 77.851562 -101.234375 77.671875 -101.285156 77.671875 -101.390625 C 76.597656 -101.585938 75.554688 -101.914062 74.546875 -102.375 C 73.546875 -102.84375 72.640625 -103.304688 71.828125 -103.765625 L 62.515625 -104.15625 C 62.148438 -104.5625 61.785156 -104.816406 61.421875 -104.921875 C 61.066406 -105.023438 60.632812 -105.078125 60.125 -105.078125 C 58.375 -105.078125 56.882812 -104.921875 55.65625 -104.609375 C 54.425781 -104.304688 53.296875 -103.875 52.265625 -103.3125 C 52.210938 -103.207031 52.160156 -103.128906 52.109375 -103.078125 C 52.015625 -102.972656 51.914062 -102.921875 51.8125 -102.921875 C 51.09375 -102.359375 50.304688 -101.921875 49.453125 -101.609375 C 48.609375 -101.304688 47.75 -101.015625 46.875 -100.734375 C 46.007812 -100.453125 45.148438 -100.144531 44.296875 -99.8125 C 43.453125 -99.476562 42.671875 -99 41.953125 -98.375 L 39.03125 -95.921875 C 38.976562 -95.816406 38.71875 -95.597656 38.25 -95.265625 C 37.789062 -94.929688 37.535156 -94.660156 37.484375 -94.453125 C 37.234375 -93.890625 36.796875 -93.363281 36.171875 -92.875 C 35.554688 -92.382812 35.148438 -92.085938 34.953125 -91.984375 C 34.535156 -91.421875 34.238281 -90.816406 34.0625 -90.171875 C 33.882812 -89.535156 33.691406 -89.164062 33.484375 -89.0625 L 31.71875 -86.53125 L 29.5625 -81.59375 L 28.5625 -77.140625 C 28.507812 -77.035156 28.390625 -76.851562 28.203125 -76.59375 C 28.023438 -76.332031 27.820312 -76.0625 27.59375 -75.78125 C 27.363281 -75.5 27.132812 -75.253906 26.90625 -75.046875 C 26.675781 -74.847656 26.507812 -74.75 26.40625 -74.75 C 26.40625 -74.695312 26.378906 -74.488281 26.328125 -74.125 C 26.273438 -73.769531 26.234375 -73.347656 26.203125 -72.859375 C 26.179688 -72.367188 26.144531 -71.878906 26.09375 -71.390625 C 26.039062 -70.910156 26.015625 -70.539062 26.015625 -70.28125 L 26.015625 -68.203125 L 26.40625 -60.359375 L 27.328125 -56.578125 L 26.40625 -52.34375 C 26.40625 -49.882812 26.738281 -47.421875 27.40625 -44.953125 C 28.070312 -42.492188 28.789062 -40.109375 29.5625 -37.796875 C 29.664062 -37.742188 30.128906 -37.128906 30.953125 -35.953125 L 31.71875 -33.796875 C 31.875 -33.378906 32.101562 -32.976562 32.40625 -32.59375 C 32.71875 -32.21875 33.066406 -31.847656 33.453125 -31.484375 C 33.835938 -31.128906 34.207031 -30.796875 34.5625 -30.484375 C 34.925781 -30.171875 35.234375 -29.863281 35.484375 -29.5625 C 35.742188 -28.632812 35.925781 -27.988281 36.03125 -27.625 C 36.132812 -27.269531 36.234375 -27.03125 36.328125 -26.90625 C 36.429688 -26.78125 36.5625 -26.675781 36.71875 -26.59375 C 36.875 -26.519531 37.128906 -26.300781 37.484375 -25.9375 C 37.847656 -25.789062 38.144531 -25.546875 38.375 -25.203125 C 38.601562 -24.867188 38.820312 -24.5 39.03125 -24.09375 C 39.238281 -23.6875 39.441406 -23.273438 39.640625 -22.859375 C 39.847656 -22.453125 40.128906 -22.117188 40.484375 -21.859375 C 41.460938 -21.703125 42.296875 -21.609375 42.984375 -21.578125 C 43.679688 -21.554688 44.3125 -21.238281 44.875 -20.625 C 46.113281 -19.601562 47.269531 -18.71875 48.34375 -17.96875 C 49.414062 -17.226562 50.503906 -16.585938 51.609375 -16.046875 C 52.710938 -15.503906 53.878906 -15.039062 55.109375 -14.65625 C 56.347656 -14.28125 57.738281 -13.960938 59.28125 -13.703125 L 63.28125 -12.546875 C 64.613281 -12.546875 65.703125 -12.738281 66.546875 -13.125 C 67.390625 -13.507812 68.222656 -13.703125 69.046875 -13.703125 C 69.816406 -13.703125 70.535156 -13.429688 71.203125 -12.890625 C 71.867188 -12.359375 72.613281 -12.09375 73.4375 -12.09375 C 74.101562 -12.09375 74.65625 -12.304688 75.09375 -12.734375 C 75.53125 -13.171875 76.082031 -13.492188 76.75 -13.703125 C 76.851562 -13.703125 77.171875 -13.753906 77.703125 -13.859375 C 78.242188 -13.960938 78.59375 -14.039062 78.75 -14.09375 C 78.957031 -14.09375 79.289062 -14.21875 79.75 -14.46875 C 80.207031 -14.726562 80.539062 -14.960938 80.75 -15.171875 C 82.5 -15.421875 83.613281 -15.632812 84.09375 -15.8125 C 84.582031 -16 84.878906 -16.09375 84.984375 -16.09375 C 85.035156 -16.144531 85.160156 -16.257812 85.359375 -16.4375 C 85.566406 -16.613281 85.785156 -16.816406 86.015625 -17.046875 C 86.253906 -17.273438 86.472656 -17.503906 86.671875 -17.734375 C 86.878906 -17.972656 87.035156 -18.144531 87.140625 -18.25 C 87.347656 -18.25 87.679688 -18.375 88.140625 -18.625 C 88.597656 -18.882812 89.097656 -19.191406 89.640625 -19.546875 C 90.179688 -19.910156 90.71875 -20.269531 91.25 -20.625 C 91.789062 -20.988281 92.242188 -21.273438 92.609375 -21.484375 C 92.867188 -21.628906 93.046875 -21.816406 93.140625 -22.046875 C 93.242188 -22.285156 93.425781 -22.53125 93.6875 -22.78125 C 94.457031 -23.863281 95.226562 -24.660156 96 -25.171875 C 96.769531 -25.679688 97.585938 -26.476562 98.453125 -27.5625 C 98.660156 -27.757812 98.957031 -28.078125 99.34375 -28.515625 C 99.726562 -28.953125 99.972656 -29.300781 100.078125 -29.5625 C 100.128906 -29.664062 100.242188 -29.984375 100.421875 -30.515625 C 100.597656 -31.054688 100.789062 -31.351562 101 -31.40625 C 101.664062 -31.96875 102.304688 -32.351562 102.921875 -32.5625 C 103.535156 -32.769531 104.175781 -32.875 104.84375 -32.875 C 105.207031 -32.875 105.53125 -32.71875 105.8125 -32.40625 C 106.09375 -32.101562 106.320312 -31.742188 106.5 -31.328125 C 106.675781 -30.921875 106.816406 -30.472656 106.921875 -29.984375 C 107.023438 -29.492188 107.078125 -29.097656 107.078125 -28.796875 C 107.078125 -27.765625 106.84375 -26.847656 106.375 -26.046875 C 105.914062 -25.253906 105.40625 -24.5 104.84375 -23.78125 C 104.28125 -23.0625 103.726562 -22.332031 103.1875 -21.59375 C 102.65625 -20.851562 102.285156 -19.992188 102.078125 -19.015625 C 101.867188 -18.859375 101.53125 -18.585938 101.0625 -18.203125 C 100.601562 -17.816406 100.144531 -17.394531 99.6875 -16.9375 C 99.226562 -16.476562 98.789062 -16.03125 98.375 -15.59375 C 97.96875 -15.15625 97.710938 -14.832031 97.609375 -14.625 C 96.484375 -13.132812 95.457031 -12.09375 94.53125 -11.5 C 93.601562 -10.914062 92.734375 -10.316406 91.921875 -9.703125 C 91.554688 -9.234375 91.285156 -8.753906 91.109375 -8.265625 C 90.929688 -7.785156 90.53125 -7.414062 89.90625 -7.15625 C 89.1875 -6.75 88.378906 -6.378906 87.484375 -6.046875 C 86.585938 -5.710938 85.628906 -5.414062 84.609375 -5.15625 C 82.960938 -4.132812 81.5 -3.441406 80.21875 -3.078125 C 78.9375 -2.722656 77.597656 -2.3125 76.203125 -1.84375 L 73.125 -0.15625 C 70.40625 0 68.53125 0.21875 67.5 0.5 C 66.476562 0.78125 65.867188 0.921875 65.671875 0.921875 C 64.023438 0.867188 62.90625 0.726562 62.3125 0.5 C 61.726562 0.269531 61.332031 0.15625 61.125 0.15625 L 56.34375 1.6875 C 55.78125 1.632812 55.175781 1.582031 54.53125 1.53125 C 53.894531 1.488281 53.269531 1.425781 52.65625 1.34375 C 52.039062 1.269531 51.472656 1.164062 50.953125 1.03125 C 50.441406 0.90625 50.0625 0.738281 49.8125 0.53125 C 48.425781 0.175781 46.988281 -0.078125 45.5 -0.234375 C 44.007812 -0.390625 42.570312 -0.800781 41.1875 -1.46875 L 35.484375 -3.6875 C 35.378906 -3.789062 35.070312 -3.90625 34.5625 -4.03125 C 34.050781 -4.164062 33.691406 -4.234375 33.484375 -4.234375 C 31.992188 -6.179688 31.148438 -7.15625 30.953125 -7.15625 L 29.09375 -7.15625 C 28.6875 -7.414062 28.210938 -7.914062 27.671875 -8.65625 C 27.128906 -9.40625 26.578125 -10.238281 26.015625 -11.15625 C 26.015625 -11.78125 25.664062 -12.164062 24.96875 -12.3125 C 24.28125 -12.46875 23.679688 -12.546875 23.171875 -12.546875 C 22.859375 -12.703125 22.648438 -12.921875 22.546875 -13.203125 C 22.453125 -13.484375 22.363281 -13.789062 22.28125 -14.125 C 22.207031 -14.457031 22.117188 -14.800781 22.015625 -15.15625 C 21.910156 -15.519531 21.734375 -15.832031 21.484375 -16.09375 C 21.378906 -16.34375 21.117188 -16.710938 20.703125 -17.203125 C 20.296875 -17.691406 19.960938 -18.039062 19.703125 -18.25 C 19.347656 -18.445312 19.066406 -18.597656 18.859375 -18.703125 C 18.648438 -18.804688 18.46875 -18.894531 18.3125 -18.96875 C 18.164062 -19.050781 18.015625 -19.179688 17.859375 -19.359375 C 17.703125 -19.535156 17.5 -19.832031 17.25 -20.25 L 15.3125 -23.171875 L 13.625 -25.015625 C 13.625 -26.816406 13.492188 -28.078125 13.234375 -28.796875 C 12.984375 -29.515625 12.804688 -29.898438 12.703125 -29.953125 C 12.703125 -30.148438 12.632812 -30.59375 12.5 -31.28125 C 12.375 -31.976562 12.257812 -32.378906 12.15625 -32.484375 C 11.132812 -32.941406 10.492188 -33.273438 10.234375 -33.484375 C 10.035156 -33.640625 9.882812 -33.742188 9.78125 -33.796875 Z M 8.3125 -40.71875 "/></g></g></g><g fill="#000000" fill-opacity="1"><g transform="translate(178.647017, 192.100377)"><g><path d="M 7.546875 -38.640625 C 7.546875 -39.304688 7.722656 -39.957031 8.078125 -40.59375 C 8.441406 -41.238281 8.625 -41.945312 8.625 -42.71875 L 6.625 -51.265625 C 6.625 -52.753906 6.710938 -54.421875 6.890625 -56.265625 C 7.066406 -58.117188 7.285156 -59.738281 7.546875 -61.125 C 7.953125 -62.40625 8.285156 -63.773438 8.546875 -65.234375 C 8.804688 -66.703125 9.007812 -68.164062 9.15625 -69.625 C 9.3125 -71.09375 9.414062 -72.476562 9.46875 -73.78125 C 9.519531 -75.09375 9.546875 -76.210938 9.546875 -77.140625 C 10.109375 -77.859375 10.671875 -78.472656 11.234375 -78.984375 C 11.804688 -79.492188 12.320312 -79.992188 12.78125 -80.484375 C 13.238281 -80.972656 13.617188 -81.535156 13.921875 -82.171875 C 14.234375 -82.816406 14.46875 -83.628906 14.625 -84.609375 L 18.859375 -88.984375 L 20.859375 -89.90625 C 21.171875 -90.0625 21.53125 -90.421875 21.9375 -90.984375 C 22.351562 -91.554688 22.773438 -92.210938 23.203125 -92.953125 C 23.640625 -93.691406 24.078125 -94.410156 24.515625 -95.109375 C 24.953125 -95.804688 25.375 -96.332031 25.78125 -96.6875 C 28.707031 -98.789062 31.59375 -100.738281 34.4375 -102.53125 C 37.289062 -104.332031 40.410156 -106.078125 43.796875 -107.765625 C 44.054688 -107.816406 44.316406 -107.894531 44.578125 -108 C 44.828125 -108.050781 45.066406 -108.101562 45.296875 -108.15625 C 45.535156 -108.207031 45.726562 -108.234375 45.875 -108.234375 C 46.695312 -108.335938 47.363281 -108.53125 47.875 -108.8125 C 48.394531 -109.09375 48.882812 -109.375 49.34375 -109.65625 C 49.800781 -109.9375 50.300781 -110.191406 50.84375 -110.421875 C 51.382812 -110.660156 52.039062 -110.78125 52.8125 -110.78125 L 56.578125 -110.15625 L 57.734375 -110.78125 L 60.578125 -111.625 C 62.890625 -111.925781 65.132812 -112.101562 67.3125 -112.15625 C 69.5 -112.207031 71.722656 -112.234375 73.984375 -112.234375 C 74.703125 -112.234375 75.894531 -112.078125 77.5625 -111.765625 C 79.226562 -111.460938 80.972656 -111.09375 82.796875 -110.65625 C 84.617188 -110.21875 86.296875 -109.769531 87.828125 -109.3125 C 89.367188 -108.851562 90.398438 -108.492188 90.921875 -108.234375 C 92.398438 -107.203125 93.742188 -105.96875 94.953125 -104.53125 C 96.160156 -103.101562 97.429688 -101.875 98.765625 -100.84375 C 99.585938 -100.226562 100.394531 -99.710938 101.1875 -99.296875 C 101.988281 -98.890625 102.769531 -98.492188 103.53125 -98.109375 C 104.300781 -97.722656 105.070312 -97.3125 105.84375 -96.875 C 106.613281 -96.4375 107.359375 -95.882812 108.078125 -95.21875 C 108.335938 -95.125 108.644531 -94.921875 109 -94.609375 C 109.363281 -94.296875 109.722656 -93.945312 110.078125 -93.5625 C 110.441406 -93.1875 110.765625 -92.828125 111.046875 -92.484375 C 111.328125 -92.148438 111.546875 -91.910156 111.703125 -91.765625 L 112.234375 -89.375 C 112.335938 -88.757812 112.609375 -88.179688 113.046875 -87.640625 C 113.484375 -87.097656 113.96875 -86.554688 114.5 -86.015625 C 115.039062 -85.484375 115.554688 -84.957031 116.046875 -84.4375 C 116.535156 -83.925781 116.859375 -83.390625 117.015625 -82.828125 C 117.421875 -82.210938 117.878906 -81.429688 118.390625 -80.484375 C 118.910156 -79.535156 119.425781 -78.519531 119.9375 -77.4375 C 120.445312 -76.363281 120.878906 -75.300781 121.234375 -74.25 C 121.597656 -73.195312 121.832031 -72.285156 121.9375 -71.515625 L 121.9375 -66.96875 C 122.144531 -66.101562 122.335938 -65.410156 122.515625 -64.890625 C 122.691406 -64.378906 122.960938 -63.84375 123.328125 -63.28125 C 123.523438 -62.71875 123.703125 -62.164062 123.859375 -61.625 C 124.015625 -61.082031 124.09375 -60.375 124.09375 -59.5 C 124.09375 -59.40625 124.066406 -59.226562 124.015625 -58.96875 C 123.960938 -58.707031 123.921875 -58.421875 123.890625 -58.109375 C 123.867188 -57.804688 123.832031 -57.515625 123.78125 -57.234375 C 123.726562 -56.953125 123.703125 -56.734375 123.703125 -56.578125 L 124.484375 -54.578125 L 124.09375 -51.265625 C 124.195312 -51.015625 124.25 -50.707031 124.25 -50.34375 C 124.25 -49.988281 124.25 -49.578125 124.25 -49.109375 C 124.25 -47.472656 124.144531 -46.023438 123.9375 -44.765625 C 123.726562 -43.503906 123.523438 -42.695312 123.328125 -42.34375 C 122.753906 -40.695312 122.109375 -39.179688 121.390625 -37.796875 C 120.679688 -36.410156 119.941406 -35.035156 119.171875 -33.671875 C 118.398438 -32.316406 117.640625 -30.921875 116.890625 -29.484375 C 116.148438 -28.046875 115.445312 -26.476562 114.78125 -24.78125 C 114.46875 -24.476562 114.15625 -24.25 113.84375 -24.09375 C 113.539062 -23.9375 113.234375 -23.804688 112.921875 -23.703125 C 112.617188 -23.609375 112.3125 -23.457031 112 -23.25 C 111.695312 -23.039062 111.414062 -22.757812 111.15625 -22.40625 C 111 -22.144531 110.832031 -21.804688 110.65625 -21.390625 C 110.476562 -20.984375 110.273438 -20.535156 110.046875 -20.046875 C 109.816406 -19.566406 109.570312 -19.09375 109.3125 -18.625 C 109.050781 -18.164062 108.769531 -17.78125 108.46875 -17.46875 L 106.921875 -16.546875 C 106.515625 -16.546875 106.117188 -16.351562 105.734375 -15.96875 C 105.347656 -15.582031 105.15625 -15.238281 105.15625 -14.9375 C 104.789062 -14.46875 104.273438 -13.835938 103.609375 -13.046875 C 102.941406 -12.253906 102.222656 -11.429688 101.453125 -10.578125 C 100.691406 -9.734375 99.953125 -8.953125 99.234375 -8.234375 C 98.515625 -7.515625 97.921875 -6.976562 97.453125 -6.625 C 97.097656 -6.414062 96.789062 -6.234375 96.53125 -6.078125 C 96.28125 -5.972656 96.035156 -5.867188 95.796875 -5.765625 C 95.566406 -5.671875 95.398438 -5.625 95.296875 -5.625 L 86.75 -2.6875 C 86.394531 -2.28125 86.140625 -1.960938 85.984375 -1.734375 C 85.828125 -1.503906 85.671875 -1.335938 85.515625 -1.234375 C 85.367188 -1.128906 85.191406 -1.035156 84.984375 -0.953125 C 84.773438 -0.878906 84.441406 -0.789062 83.984375 -0.6875 L 78.90625 -0.234375 L 73.4375 2.15625 C 72.976562 2.257812 72.515625 2.335938 72.046875 2.390625 C 71.640625 2.441406 71.21875 2.476562 70.78125 2.5 C 70.34375 2.53125 69.921875 2.546875 69.515625 2.546875 C 68.953125 2.546875 68.269531 2.476562 67.46875 2.34375 C 66.675781 2.21875 65.84375 2.078125 64.96875 1.921875 C 64.09375 1.765625 63.234375 1.597656 62.390625 1.421875 C 61.546875 1.242188 60.789062 1.078125 60.125 0.921875 C 59.09375 0.660156 58.007812 0.503906 56.875 0.453125 C 55.75 0.410156 54.625 0.390625 53.5 0.390625 C 51.550781 0.390625 49.675781 0.320312 47.875 0.1875 C 46.082031 0.0625 44.3125 -0.359375 42.5625 -1.078125 L 41.421875 -2.6875 C 40.847656 -2.84375 40.175781 -2.957031 39.40625 -3.03125 C 38.644531 -3.113281 37.863281 -3.234375 37.0625 -3.390625 C 36.269531 -3.546875 35.523438 -3.75 34.828125 -4 C 34.140625 -4.257812 33.613281 -4.644531 33.25 -5.15625 C 32.476562 -6.082031 31.863281 -6.863281 31.40625 -7.5 C 30.945312 -8.144531 30.484375 -8.710938 30.015625 -9.203125 C 29.554688 -9.691406 28.976562 -10.148438 28.28125 -10.578125 C 27.59375 -11.015625 26.632812 -11.492188 25.40625 -12.015625 L 23.015625 -12.546875 C 22.503906 -12.804688 21.941406 -13.316406 21.328125 -14.078125 C 20.710938 -14.847656 20.09375 -15.75 19.46875 -16.78125 C 18.851562 -17.8125 18.222656 -18.914062 17.578125 -20.09375 C 16.941406 -21.269531 16.367188 -22.410156 15.859375 -23.515625 C 15.347656 -24.617188 14.882812 -25.609375 14.46875 -26.484375 C 14.0625 -27.359375 13.753906 -28.023438 13.546875 -28.484375 C 13.085938 -29.710938 12.507812 -30.597656 11.8125 -31.140625 C 11.125 -31.679688 10.472656 -32.191406 9.859375 -32.671875 C 9.242188 -33.160156 8.703125 -33.816406 8.234375 -34.640625 C 7.773438 -35.460938 7.546875 -36.796875 7.546875 -38.640625 Z M 23.78125 -55.8125 C 23.78125 -54.78125 23.972656 -53.828125 24.359375 -52.953125 C 24.742188 -52.085938 25.191406 -51.242188 25.703125 -50.421875 C 26.222656 -49.597656 26.703125 -48.773438 27.140625 -47.953125 C 27.578125 -47.140625 27.84375 -46.242188 27.9375 -45.265625 C 28.039062 -45.109375 28.09375 -44.800781 28.09375 -44.34375 L 27.9375 -40.640625 C 27.9375 -40.179688 27.988281 -39.671875 28.09375 -39.109375 C 28.195312 -38.546875 28.457031 -37.976562 28.875 -37.40625 C 29.175781 -36.84375 29.503906 -36.445312 29.859375 -36.21875 C 30.222656 -35.988281 30.570312 -35.757812 30.90625 -35.53125 C 31.238281 -35.300781 31.546875 -35.03125 31.828125 -34.71875 C 32.109375 -34.40625 32.328125 -33.914062 32.484375 -33.25 L 32.5625 -32.484375 C 32.5625 -32.128906 32.546875 -31.796875 32.515625 -31.484375 C 32.492188 -31.171875 32.484375 -30.707031 32.484375 -30.09375 C 32.484375 -29.226562 32.613281 -28.507812 32.875 -27.9375 C 33.070312 -27.375 33.453125 -27.015625 34.015625 -26.859375 C 34.585938 -26.710938 35.050781 -26.40625 35.40625 -25.9375 C 36.175781 -23.9375 36.945312 -22.28125 37.71875 -20.96875 C 38.488281 -19.664062 39.539062 -18.453125 40.875 -17.328125 C 42.675781 -15.890625 44.507812 -14.5 46.375 -13.15625 C 48.25 -11.820312 50.1875 -10.628906 52.1875 -9.578125 C 54.1875 -8.523438 56.289062 -7.691406 58.5 -7.078125 C 60.707031 -6.460938 63.046875 -6.15625 65.515625 -6.15625 C 66.179688 -6.15625 66.742188 -6.207031 67.203125 -6.3125 C 67.660156 -6.414062 68.109375 -6.539062 68.546875 -6.6875 C 68.984375 -6.84375 69.429688 -7 69.890625 -7.15625 C 70.359375 -7.3125 70.925781 -7.46875 71.59375 -7.625 C 73.03125 -7.820312 74.660156 -8.0625 76.484375 -8.34375 C 78.304688 -8.632812 79.960938 -8.78125 81.453125 -8.78125 C 82.523438 -9.59375 83.726562 -10.359375 85.0625 -11.078125 C 86.394531 -11.796875 87.710938 -12.550781 89.015625 -13.34375 C 90.328125 -14.144531 91.535156 -15.03125 92.640625 -16 C 93.742188 -16.976562 94.628906 -18.132812 95.296875 -19.46875 L 99.3125 -27.5625 C 100.019531 -28.070312 100.539062 -28.738281 100.875 -29.5625 C 101.21875 -30.382812 101.488281 -31.226562 101.6875 -32.09375 C 101.894531 -32.96875 102.113281 -33.84375 102.34375 -34.71875 C 102.570312 -35.59375 102.96875 -36.363281 103.53125 -37.03125 L 105.15625 -47.65625 C 105.15625 -48.46875 105.085938 -49.234375 104.953125 -49.953125 C 104.828125 -50.671875 104.765625 -51.546875 104.765625 -52.578125 L 105.6875 -55.125 C 105.6875 -55.9375 105.492188 -56.921875 105.109375 -58.078125 C 104.734375 -59.234375 104.273438 -60.414062 103.734375 -61.625 C 103.191406 -62.832031 102.640625 -64.007812 102.078125 -65.15625 C 101.515625 -66.3125 101.023438 -67.273438 100.609375 -68.046875 L 99.84375 -69.359375 L 100.234375 -71.515625 C 100.234375 -72.285156 100.101562 -72.960938 99.84375 -73.546875 C 99.582031 -74.140625 99.296875 -74.679688 98.984375 -75.171875 C 98.679688 -75.660156 98.375 -76.144531 98.0625 -76.625 C 97.757812 -77.113281 97.554688 -77.671875 97.453125 -78.296875 L 96.765625 -82.0625 C 96.304688 -83.5 95.359375 -85.175781 93.921875 -87.09375 C 92.484375 -89.019531 90.863281 -90.90625 89.0625 -92.75 C 87.269531 -94.601562 85.445312 -96.234375 83.59375 -97.640625 C 81.75 -99.054688 80.1875 -99.945312 78.90625 -100.3125 C 78.132812 -100.5625 77.082031 -100.710938 75.75 -100.765625 C 74.414062 -100.816406 73.335938 -100.84375 72.515625 -100.84375 L 70.515625 -103.3125 C 70.148438 -103.457031 69.519531 -103.671875 68.625 -103.953125 C 67.726562 -104.242188 66.78125 -104.53125 65.78125 -104.8125 C 64.78125 -105.09375 63.789062 -105.320312 62.8125 -105.5 C 61.84375 -105.675781 61.097656 -105.765625 60.578125 -105.765625 C 59.554688 -105.765625 58.234375 -105.660156 56.609375 -105.453125 C 54.992188 -105.253906 53.335938 -104.945312 51.640625 -104.53125 C 49.953125 -104.125 48.390625 -103.613281 46.953125 -103 C 45.515625 -102.382812 44.460938 -101.664062 43.796875 -100.84375 L 43.421875 -99.609375 C 43.003906 -99.304688 42.578125 -99.0625 42.140625 -98.875 C 41.710938 -98.695312 41.304688 -98.492188 40.921875 -98.265625 C 40.535156 -98.035156 40.195312 -97.753906 39.90625 -97.421875 C 39.625 -97.085938 39.410156 -96.585938 39.265625 -95.921875 C 38.078125 -95.609375 37.265625 -95.320312 36.828125 -95.0625 C 36.398438 -94.8125 36.09375 -94.53125 35.90625 -94.21875 C 35.726562 -93.914062 35.535156 -93.570312 35.328125 -93.1875 C 35.128906 -92.800781 34.671875 -92.328125 33.953125 -91.765625 C 31.953125 -90.429688 30.332031 -88.710938 29.09375 -86.609375 C 27.863281 -84.503906 26.925781 -82.21875 26.28125 -79.75 C 25.644531 -77.289062 25.210938 -74.765625 24.984375 -72.171875 C 24.753906 -69.578125 24.640625 -67.175781 24.640625 -64.96875 L 25.015625 -59.5 C 25.015625 -59.039062 24.804688 -58.488281 24.390625 -57.84375 C 23.984375 -57.207031 23.78125 -56.53125 23.78125 -55.8125 Z M 23.78125 -55.8125 "/></g></g></g><g fill="#000000" fill-opacity="1"><g transform="translate(72.893242, 284.630368)"><g><path d="M 13.597656 -17.800781 C 13.039062 -19.039062 10.964844 -20.027344 8.660156 -19.902344 C 4.835938 -19.648438 2.152344 -14.863281 2.660156 -9.445312 C 3.164062 -4.027344 6.683594 0.0742188 10.480469 -0.277344 C 12.28125 -0.457031 14.761719 -1.542969 15.824219 -3.265625 L 16.203125 -3.265625 C 15.191406 -1.621094 12.988281 -0.277344 10.507812 -0.0507812 C 5.242188 0.457031 0.558594 -3.671875 0.0507812 -9.214844 C -0.480469 -14.761719 3.367188 -19.671875 8.632812 -20.152344 C 11.367188 -20.40625 13.925781 -19.417969 15.847656 -17.648438 C 16.128906 -17.394531 16.304688 -17.292969 16.558594 -17.316406 L 12.863281 -16.988281 C 13.191406 -17.015625 13.796875 -17.34375 13.597656 -17.773438 C 13.597656 -17.800781 13.597656 -17.800781 13.597656 -17.800781 Z M 13.597656 -17.800781 "/></g></g></g><g fill="#000000" fill-opacity="1"><g transform="translate(90.327692, 284.630368)"><g><path d="M 4.480469 0 L 0 0 C 0.480469 0 0.886719 -0.53125 0.9375 -1.316406 L 0.9375 -18.863281 C 0.886719 -19.648438 0.480469 -20.179688 0 -20.179688 L 4.480469 -20.179688 C 3.976562 -20.179688 3.542969 -19.597656 3.542969 -18.761719 L 3.542969 -10.609375 C 3.542969 -10.378906 3.773438 -10.230469 4.101562 -10.203125 L 11.773438 -10.203125 C 12.078125 -10.230469 12.304688 -10.378906 12.304688 -10.582031 L 12.304688 -18.863281 C 12.28125 -19.648438 11.875 -20.179688 11.367188 -20.179688 L 15.875 -20.179688 C 15.367188 -20.179688 14.9375 -19.597656 14.9375 -18.734375 L 14.9375 -1.417969 C 14.9375 -0.582031 15.367188 0 15.875 0 L 11.367188 0 C 11.875 0 12.28125 -0.53125 12.304688 -1.316406 L 12.304688 -9.597656 C 12.304688 -9.796875 12.050781 -9.949219 11.695312 -9.976562 L 4.152344 -9.976562 L 4.175781 -9.976562 C 3.796875 -9.949219 3.542969 -9.773438 3.542969 -9.570312 L 3.542969 -1.441406 C 3.542969 -0.582031 3.976562 0 4.480469 0 Z M 4.480469 0 "/></g></g></g><g fill="#000000" fill-opacity="1"><g transform="translate(107.483806, 284.630368)"><g><path d="M 4.507812 0 L 0 0 C 0.507812 0 0.910156 -0.53125 0.9375 -1.316406 L 0.9375 -18.863281 C 0.910156 -19.648438 0.507812 -20.179688 0 -20.179688 L 8.230469 -20.179688 C 13.164062 -20.179688 14.964844 -17.191406 14.9375 -13.546875 C 14.914062 -10.632812 13.316406 -8.203125 9.773438 -7.671875 C 10.632812 -7.496094 10.761719 -7.011719 11.191406 -6.277344 L 13.519531 -1.441406 C 13.925781 -0.582031 14.609375 -0.0234375 15.140625 -0.0234375 L 10.632812 -0.0234375 C 11.113281 -0.0234375 11.292969 -0.53125 10.9375 -1.34375 L 8.53125 -6.378906 C 8.253906 -6.910156 7.875 -7.316406 7.496094 -7.546875 L 3.570312 -7.546875 L 3.570312 -1.441406 C 3.570312 -0.582031 4 0 4.507812 0 Z M 6.027344 -19.949219 L 3.976562 -19.949219 C 3.722656 -19.699219 3.570312 -19.265625 3.570312 -18.761719 L 3.570312 -7.773438 L 6.277344 -7.773438 C 12.128906 -7.847656 12.128906 -12.582031 12.128906 -13.519531 C 12.152344 -14.152344 12.660156 -19.949219 6.027344 -19.949219 Z M 6.027344 -19.949219 "/></g></g></g><g fill="#000000" fill-opacity="1"><g transform="translate(123.678366, 284.630368)"><g><path d="M 0 -20.179688 L 4.480469 -20.179688 C 3.976562 -20.179688 3.542969 -19.597656 3.542969 -18.734375 L 3.542969 -1.417969 C 3.542969 -0.582031 3.976562 0 4.480469 0 L 0 0 C 0.480469 0 0.886719 -0.53125 0.9375 -1.316406 L 0.9375 -18.863281 C 0.886719 -19.648438 0.480469 -20.179688 0 -20.179688 Z M 0 -20.179688 "/></g></g></g><g fill="#000000" fill-opacity="1"><g transform="translate(129.447673, 284.630368)"><g><path d="M 3.441406 -4.027344 C 3.394531 -2.660156 4.609375 -0.355469 7.570312 -0.277344 C 10.480469 -0.203125 11.949219 -2.429688 12.027344 -4.582031 C 12.253906 -10.53125 0.175781 -8.203125 1.390625 -15.796875 C 1.746094 -18 4.203125 -20.179688 7.496094 -20.203125 C 10.582031 -20.253906 12.429688 -19.167969 13.214844 -17.394531 C 13.445312 -16.886719 13.949219 -16.53125 14.355469 -16.433594 L 9.925781 -16.457031 C 11.164062 -16.507812 10.863281 -17.496094 10.8125 -17.75 C 10.429688 -19.242188 9.242188 -19.925781 8.078125 -19.949219 C 4.9375 -20.027344 3.796875 -18.027344 4.078125 -15.925781 C 4.808594 -10.253906 15.417969 -12.582031 15.214844 -5.265625 C 15.113281 -1.875 12.609375 0 7.773438 -0.0234375 C 3.570312 -0.0507812 1.519531 -2.886719 0.988281 -4.558594 C 0.734375 -4.960938 0.304688 -5.265625 -0.0507812 -5.367188 L 4.304688 -5.34375 C 3.492188 -5.214844 3.441406 -4.355469 3.441406 -4.027344 Z M 3.441406 -4.027344 "/></g></g></g><g fill="#000000" fill-opacity="1"><g transform="translate(145.869972, 284.630368)"><g><path d="M 0 -20.179688 L 14.632812 -20.179688 L 14.632812 -17.394531 C 14.632812 -17.394531 14.382812 -19.851562 10.101562 -19.949219 L 9.039062 -19.949219 C 8.785156 -19.699219 8.609375 -19.265625 8.609375 -18.734375 L 8.609375 -1.417969 C 8.609375 -0.582031 9.039062 0 9.570312 0 L 5.0625 0 C 5.542969 0 5.976562 -0.53125 6 -1.316406 L 6 -18.863281 C 5.976562 -19.34375 5.824219 -19.722656 5.59375 -19.949219 L 4.53125 -19.949219 C 0.253906 -19.851562 0 -17.394531 0 -17.394531 Z M 0 -20.179688 "/></g></g></g><g fill="#000000" fill-opacity="1"><g transform="translate(161.786196, 284.630368)"><g><path d="M 0 -20.179688 L 4.480469 -20.179688 C 3.976562 -20.179688 3.542969 -19.597656 3.542969 -18.734375 L 3.542969 -1.417969 C 3.542969 -0.582031 3.976562 0 4.480469 0 L 0 0 C 0.480469 0 0.886719 -0.53125 0.9375 -1.316406 L 0.9375 -18.863281 C 0.886719 -19.648438 0.480469 -20.179688 0 -20.179688 Z M 0 -20.179688 "/></g></g></g><g fill="#000000" fill-opacity="1"><g transform="translate(167.555503, 284.630368)"><g><path d="M 6.277344 -20.179688 L 10.785156 -20.179688 C 10.253906 -20.179688 10.027344 -19.597656 10.28125 -18.761719 L 15.699219 -1.441406 C 15.976562 -0.582031 16.582031 0 17.089844 0 L 12.582031 0 C 13.089844 0 13.34375 -0.53125 13.113281 -1.316406 L 10.53125 -9.570312 C 10.457031 -9.796875 10.28125 -9.976562 9.898438 -9.976562 L 5.164062 -9.976562 C 4.808594 -9.976562 4.609375 -9.796875 4.558594 -9.570312 L 1.949219 -1.316406 C 1.746094 -0.53125 1.976562 0 2.480469 0 L 0 0 C 0.507812 0 1.113281 -0.582031 1.390625 -1.441406 L 6.8125 -18.761719 C 7.011719 -19.46875 6.886719 -20 6.53125 -20.128906 C 6.429688 -20.152344 6.355469 -20.179688 6.277344 -20.179688 Z M 10.203125 -10.582031 L 7.621094 -18.863281 C 7.59375 -18.9375 7.570312 -19.015625 7.546875 -19.089844 C 7.496094 -19.015625 7.46875 -18.9375 7.445312 -18.863281 L 4.859375 -10.582031 C 4.808594 -10.40625 4.808594 -10.230469 5.113281 -10.203125 L 9.949219 -10.203125 C 10.28125 -10.230469 10.253906 -10.40625 10.203125 -10.582031 Z M 10.203125 -10.582031 "/></g></g></g><g fill="#000000" fill-opacity="1"><g transform="translate(185.926209, 284.630368)"><g><path d="M 4.53125 -20.179688 C 4.027344 -20.179688 3.875 -19.621094 4.277344 -18.761719 L 12.53125 -1.441406 C 12.558594 -1.390625 12.582031 -1.34375 12.609375 -1.292969 C 12.609375 -1.34375 12.609375 -1.390625 12.609375 -1.441406 L 12.632812 -18.761719 C 12.632812 -19.597656 12.203125 -20.179688 11.695312 -20.179688 L 14.179688 -20.179688 C 13.671875 -20.179688 13.265625 -19.648438 13.242188 -18.863281 L 13.214844 -1.316406 C 13.265625 -0.632812 13.367188 0 14.152344 0 L 9.671875 -0.0234375 C 10.152344 -0.0234375 10.328125 -0.53125 9.976562 -1.34375 L 1.621094 -18.863281 C 1.59375 -18.886719 1.570312 -18.914062 1.570312 -18.9375 C 1.570312 -18.914062 1.570312 -18.886719 1.570312 -18.863281 L 1.542969 -1.316406 C 1.59375 -0.53125 2 0 2.480469 0 L 0 0 C 0.53125 0 0.9375 -0.582031 0.9375 -1.441406 L 0.960938 -18.761719 C 0.960938 -19.597656 0.53125 -20.179688 0.0234375 -20.179688 L 0.101562 -20.179688 C 0.0742188 -20.179688 0.0742188 -20.179688 0.0507812 -20.179688 Z M 4.53125 -20.179688 "/></g></g></g><g fill="#000000" fill-opacity="1"><g transform="translate(201.361656, 284.630368)"><g/></g></g><g fill="#000000" fill-opacity="1"><g transform="translate(211.483256, 284.630368)"><g><path d="M 9.597656 -20.203125 C 14.863281 -20.203125 19.140625 -15.671875 19.140625 -10.101562 C 19.140625 -4.53125 14.863281 0 9.597656 0 C 4.304688 0 0.0234375 -4.53125 0.0234375 -10.101562 C 0.0234375 -15.671875 4.304688 -20.203125 9.597656 -20.203125 Z M 9.597656 -19.925781 C 5.746094 -19.925781 2.660156 -15.519531 2.660156 -10.078125 C 2.660156 -4.660156 5.746094 -0.253906 9.597656 -0.253906 C 13.417969 -0.253906 16.507812 -4.660156 16.507812 -10.078125 C 16.507812 -15.519531 13.417969 -19.925781 9.597656 -19.925781 Z M 9.597656 -19.925781 "/></g></g></g><g fill="#000000" fill-opacity="1"><g transform="translate(231.852983, 284.630368)"><g><path d="M 4.507812 0 L 0 0 C 0.507812 0 0.910156 -0.53125 0.9375 -1.316406 L 0.9375 -18.863281 C 0.910156 -19.648438 0.507812 -20.179688 0 -20.179688 L 8.230469 -20.179688 C 13.164062 -20.179688 14.964844 -17.191406 14.9375 -13.546875 C 14.914062 -10.632812 13.316406 -8.203125 9.773438 -7.671875 C 10.632812 -7.496094 10.761719 -7.011719 11.191406 -6.277344 L 13.519531 -1.441406 C 13.925781 -0.582031 14.609375 -0.0234375 15.140625 -0.0234375 L 10.632812 -0.0234375 C 11.113281 -0.0234375 11.292969 -0.53125 10.9375 -1.34375 L 8.53125 -6.378906 C 8.253906 -6.910156 7.875 -7.316406 7.496094 -7.546875 L 3.570312 -7.546875 L 3.570312 -1.441406 C 3.570312 -0.582031 4 0 4.507812 0 Z M 6.027344 -19.949219 L 3.976562 -19.949219 C 3.722656 -19.699219 3.570312 -19.265625 3.570312 -18.761719 L 3.570312 -7.773438 L 6.277344 -7.773438 C 12.128906 -7.847656 12.128906 -12.582031 12.128906 -13.519531 C 12.152344 -14.152344 12.660156 -19.949219 6.027344 -19.949219 Z M 6.027344 -19.949219 "/></g></g></g><g fill="#000000" fill-opacity="1"><g transform="translate(248.047543, 284.630368)"><g><path d="M 0 -20.179688 L 14.632812 -20.179688 L 14.632812 -17.394531 C 14.632812 -17.394531 14.382812 -19.851562 10.101562 -19.949219 L 9.039062 -19.949219 C 8.785156 -19.699219 8.609375 -19.265625 8.609375 -18.734375 L 8.609375 -1.417969 C 8.609375 -0.582031 9.039062 0 9.570312 0 L 5.0625 0 C 5.542969 0 5.976562 -0.53125 6 -1.316406 L 6 -18.863281 C 5.976562 -19.34375 5.824219 -19.722656 5.59375 -19.949219 L 4.53125 -19.949219 C 0.253906 -19.851562 0 -17.394531 0 -17.394531 Z M 0 -20.179688 "/></g></g></g><g fill="#000000" fill-opacity="1"><g transform="translate(263.963767, 284.630368)"><g><path d="M 0 -20.179688 L 4.480469 -20.179688 C 3.976562 -20.179688 3.542969 -19.597656 3.542969 -18.734375 L 3.542969 -1.417969 C 3.542969 -0.582031 3.976562 0 4.480469 0 L 0 0 C 0.480469 0 0.886719 -0.53125 0.9375 -1.316406 L 0.9375 -18.863281 C 0.886719 -19.648438 0.480469 -20.179688 0 -20.179688 Z M 0 -20.179688 "/></g></g></g><g fill="#000000" fill-opacity="1"><g transform="translate(269.733074, 284.630368)"><g><path d="M 0.226562 -20.179688 L 13.394531 -20.179688 C 12.886719 -20.179688 12.203125 -19.597656 11.824219 -18.734375 L 4.175781 -1.417969 C 3.949219 -0.910156 3.925781 -0.480469 4.050781 -0.253906 L 8.457031 -0.253906 C 12.734375 -0.328125 12.988281 -2.808594 12.988281 -2.808594 L 12.988281 0 L 0 0 C 0.480469 0 1.140625 -0.53125 1.519531 -1.316406 L 9.242188 -18.863281 C 9.445312 -19.34375 9.445312 -19.722656 9.316406 -19.949219 L 4.734375 -19.949219 C 0.457031 -19.851562 0.226562 -17.394531 0.226562 -17.394531 Z M 0.226562 -20.179688 "/></g></g></g></svg>