<svg xmlns="http://www.w3.org/2000/svg" xmlns:xlink="http://www.w3.org/1999/xlink" width="500" zoomAndPan="magnify" viewBox="0 0 375 374.999991" height="500" preserveAspectRatio="xMidYMid meet" version="1.0"><defs><g/><clipPath id="id1"><path d="M 14 293.628906 L 361 293.628906 L 361 309.378906 L 14 309.378906 Z M 14 293.628906 " clip-rule="nonzero"/></clipPath></defs><g clip-path="url(#id1)"><path fill="#000000" d="M 360.453125 293.628906 L 360.453125 309.382812 L 345.003906 309.382812 L 345.003906 302.613281 L 14.503906 302.613281 L 14.503906 300.394531 L 345.003906 300.394531 L 345.003906 293.628906 Z M 360.453125 293.628906 " fill-opacity="1" fill-rule="nonzero"/></g><g fill="#000000" fill-opacity="0.2"><g transform="translate(7.094446, 263.093895)"><g><path d="M 12.6875 -62.125 C 12.6875 -62.363281 12.625 -62.71875 12.5 -63.1875 C 12.382812 -63.65625 12.269531 -64.140625 12.15625 -64.640625 C 12.039062 -65.148438 11.921875 -65.617188 11.796875 -66.046875 C 11.679688 -66.484375 11.625 -66.820312 11.625 -67.0625 C 11.46875 -67.601562 11.390625 -68.03125 11.390625 -68.34375 C 11.390625 -68.65625 11.390625 -68.972656 11.390625 -69.296875 C 11.390625 -69.921875 11.46875 -70.425781 11.625 -70.8125 C 11.78125 -71.207031 12.054688 -71.796875 12.453125 -72.578125 L 11.046875 -96.0625 L 11.625 -102.640625 C 11.78125 -102.878906 11.9375 -103.15625 12.09375 -103.46875 C 12.25 -103.695312 12.363281 -103.910156 12.4375 -104.109375 C 12.519531 -104.304688 12.601562 -104.484375 12.6875 -104.640625 C 13.382812 -106.285156 13.929688 -107.847656 14.328125 -109.328125 C 14.722656 -110.816406 15.191406 -112.382812 15.734375 -114.03125 C 16.128906 -115.59375 16.328125 -117.082031 16.328125 -118.5 C 16.328125 -120.21875 16.640625 -121.625 17.265625 -122.71875 C 18.285156 -125.070312 19.441406 -127.320312 20.734375 -129.46875 C 22.023438 -131.625 23.609375 -134.148438 25.484375 -137.046875 C 25.640625 -137.285156 25.796875 -137.539062 25.953125 -137.8125 C 26.109375 -138.082031 26.265625 -138.335938 26.421875 -138.578125 C 27.128906 -139.597656 27.894531 -140.734375 28.71875 -141.984375 C 29.539062 -143.234375 29.988281 -143.9375 30.0625 -144.09375 C 31 -145.507812 31.914062 -146.566406 32.8125 -147.265625 C 33.71875 -147.972656 34.796875 -148.914062 36.046875 -150.09375 C 38.710938 -152.125 41.0625 -154 43.09375 -155.71875 C 45.132812 -157.445312 47.5625 -159.171875 50.375 -160.890625 L 53.3125 -162.1875 C 54.019531 -162.414062 54.800781 -162.742188 55.65625 -163.171875 C 56.519531 -163.609375 57.421875 -164.0625 58.359375 -164.53125 C 59.304688 -165 60.207031 -165.425781 61.0625 -165.8125 C 61.925781 -166.207031 62.710938 -166.523438 63.421875 -166.765625 L 75.390625 -168.40625 C 75.703125 -168.40625 76.210938 -168.519531 76.921875 -168.75 C 77.628906 -168.988281 78.140625 -169.304688 78.453125 -169.703125 C 81.816406 -169.773438 84.515625 -169.847656 86.546875 -169.921875 C 88.585938 -170.003906 90.507812 -170.046875 92.3125 -170.046875 C 94.738281 -170.046875 97.125 -170.003906 99.46875 -169.921875 C 101.820312 -169.847656 104.171875 -169.773438 106.515625 -169.703125 C 108.003906 -169.304688 109.21875 -169.007812 110.15625 -168.8125 C 111.09375 -168.625 111.835938 -168.46875 112.390625 -168.34375 C 112.941406 -168.226562 113.332031 -168.171875 113.5625 -168.171875 C 113.800781 -168.171875 114.035156 -168.171875 114.265625 -168.171875 C 115.203125 -168.253906 115.960938 -168.3125 116.546875 -168.34375 C 117.140625 -168.382812 117.691406 -168.40625 118.203125 -168.40625 C 118.710938 -168.40625 119.28125 -168.40625 119.90625 -168.40625 C 120.53125 -168.40625 121.351562 -168.40625 122.375 -168.40625 C 123.226562 -167.9375 124.164062 -167.269531 125.1875 -166.40625 C 126.207031 -165.550781 127.148438 -165.125 128.015625 -165.125 C 128.328125 -165.125 128.640625 -165.238281 128.953125 -165.46875 C 129.265625 -165.707031 129.5 -165.828125 129.65625 -165.828125 L 136.578125 -165.828125 C 137.597656 -165.984375 138.554688 -166.3125 139.453125 -166.8125 C 140.359375 -167.320312 141.257812 -167.867188 142.15625 -168.453125 C 143.0625 -169.046875 143.941406 -169.554688 144.796875 -169.984375 C 145.660156 -170.421875 146.640625 -170.640625 147.734375 -170.640625 C 149.066406 -170.640625 150.222656 -170.226562 151.203125 -169.40625 C 152.179688 -168.582031 152.671875 -167.390625 152.671875 -165.828125 L 152.671875 -146.328125 C 152.742188 -145.929688 152.859375 -145.300781 153.015625 -144.4375 C 153.179688 -143.582031 153.265625 -142.960938 153.265625 -142.578125 C 153.960938 -138.816406 154.78125 -134.957031 155.71875 -131 C 156.664062 -127.050781 157.140625 -123.195312 157.140625 -119.4375 C 157.054688 -118.96875 156.859375 -118.457031 156.546875 -117.90625 C 156.234375 -117.363281 155.859375 -116.851562 155.421875 -116.375 C 154.992188 -115.90625 154.582031 -115.492188 154.1875 -115.140625 C 153.800781 -114.796875 153.492188 -114.625 153.265625 -114.625 C 153.265625 -114.46875 152.988281 -114.390625 152.4375 -114.390625 C 150.875 -114.390625 149.523438 -114.738281 148.390625 -115.4375 C 147.253906 -116.144531 146.289062 -117.046875 145.5 -118.140625 C 144.71875 -119.234375 144.128906 -120.40625 143.734375 -121.65625 C 143.347656 -122.914062 143.078125 -124.09375 142.921875 -125.1875 L 142.921875 -129.0625 C 142.765625 -130.15625 142.546875 -131.035156 142.265625 -131.703125 C 141.992188 -132.367188 141.660156 -132.957031 141.265625 -133.46875 C 140.878906 -133.976562 140.429688 -134.503906 139.921875 -135.046875 C 139.421875 -135.597656 138.851562 -136.304688 138.21875 -137.171875 C 137.363281 -138.023438 136.859375 -138.976562 136.703125 -140.03125 C 136.546875 -141.09375 136.113281 -142.175781 135.40625 -143.28125 C 135.25 -143.59375 134.894531 -143.90625 134.34375 -144.21875 C 133.800781 -144.53125 133.453125 -144.6875 133.296875 -144.6875 L 125.78125 -150.09375 C 125.78125 -150.164062 125.601562 -150.378906 125.25 -150.734375 C 124.894531 -151.085938 124.519531 -151.476562 124.125 -151.90625 C 123.738281 -152.332031 123.367188 -152.742188 123.015625 -153.140625 C 122.660156 -153.535156 122.445312 -153.8125 122.375 -153.96875 C 121.507812 -154.4375 121.039062 -154.671875 120.96875 -154.671875 C 120.8125 -154.515625 120.257812 -154.4375 119.3125 -154.4375 C 118.769531 -154.4375 118.5 -154.515625 118.5 -154.671875 C 116.851562 -154.984375 115.265625 -155.488281 113.734375 -156.1875 C 112.210938 -156.894531 110.828125 -157.601562 109.578125 -158.3125 L 95.359375 -158.890625 C 94.804688 -159.515625 94.253906 -159.90625 93.703125 -160.0625 C 93.160156 -160.21875 92.5 -160.296875 91.71875 -160.296875 C 89.0625 -160.296875 86.789062 -160.0625 84.90625 -159.59375 C 83.03125 -159.125 81.304688 -158.460938 79.734375 -157.609375 C 79.660156 -157.453125 79.582031 -157.332031 79.5 -157.25 C 79.34375 -157.09375 79.1875 -157.015625 79.03125 -157.015625 C 77.9375 -156.148438 76.742188 -155.484375 75.453125 -155.015625 C 74.160156 -154.546875 72.847656 -154.09375 71.515625 -153.65625 C 70.191406 -153.226562 68.882812 -152.757812 67.59375 -152.25 C 66.300781 -151.75 65.101562 -151.03125 64 -150.09375 L 59.546875 -146.328125 C 59.460938 -146.171875 59.066406 -145.835938 58.359375 -145.328125 C 57.660156 -144.816406 57.269531 -144.40625 57.1875 -144.09375 C 56.800781 -143.238281 56.132812 -142.4375 55.1875 -141.6875 C 54.25 -140.945312 53.625 -140.5 53.3125 -140.34375 C 52.6875 -139.476562 52.238281 -138.554688 51.96875 -137.578125 C 51.695312 -136.597656 51.40625 -136.03125 51.09375 -135.875 L 48.390625 -132 L 45.09375 -124.484375 L 43.5625 -117.671875 C 43.488281 -117.515625 43.3125 -117.238281 43.03125 -116.84375 C 42.757812 -116.457031 42.445312 -116.046875 42.09375 -115.609375 C 41.75 -115.179688 41.398438 -114.8125 41.046875 -114.5 C 40.691406 -114.1875 40.4375 -114.03125 40.28125 -114.03125 C 40.28125 -113.957031 40.238281 -113.644531 40.15625 -113.09375 C 40.082031 -112.539062 40.023438 -111.894531 39.984375 -111.15625 C 39.941406 -110.414062 39.878906 -109.671875 39.796875 -108.921875 C 39.722656 -108.179688 39.6875 -107.613281 39.6875 -107.21875 L 39.6875 -104.046875 L 40.28125 -92.078125 L 41.6875 -86.3125 L 40.28125 -79.859375 C 40.28125 -76.097656 40.785156 -72.335938 41.796875 -68.578125 C 42.816406 -64.828125 43.914062 -61.1875 45.09375 -57.65625 C 45.25 -57.582031 45.953125 -56.644531 47.203125 -54.84375 L 48.390625 -51.5625 C 48.617188 -50.925781 48.96875 -50.316406 49.4375 -49.734375 C 49.90625 -49.148438 50.429688 -48.582031 51.015625 -48.03125 C 51.609375 -47.476562 52.175781 -46.96875 52.71875 -46.5 C 53.269531 -46.03125 53.742188 -45.5625 54.140625 -45.09375 C 54.535156 -43.6875 54.8125 -42.707031 54.96875 -42.15625 C 55.125 -41.613281 55.28125 -41.242188 55.4375 -41.046875 C 55.59375 -40.847656 55.785156 -40.691406 56.015625 -40.578125 C 56.253906 -40.460938 56.644531 -40.128906 57.1875 -39.578125 C 57.738281 -39.335938 58.191406 -38.960938 58.546875 -38.453125 C 58.898438 -37.953125 59.234375 -37.382812 59.546875 -36.75 C 59.859375 -36.125 60.171875 -35.5 60.484375 -34.875 C 60.796875 -34.25 61.222656 -33.742188 61.765625 -33.359375 C 63.253906 -33.117188 64.523438 -32.976562 65.578125 -32.9375 C 66.640625 -32.90625 67.601562 -32.414062 68.46875 -31.46875 C 70.34375 -29.90625 72.101562 -28.554688 73.75 -27.421875 C 75.394531 -26.285156 77.054688 -25.304688 78.734375 -24.484375 C 80.421875 -23.660156 82.203125 -22.953125 84.078125 -22.359375 C 85.960938 -21.773438 88.078125 -21.289062 90.421875 -20.90625 L 96.53125 -19.140625 C 98.570312 -19.140625 100.238281 -19.429688 101.53125 -20.015625 C 102.820312 -20.609375 104.09375 -20.90625 105.34375 -20.90625 C 106.519531 -20.90625 107.613281 -20.492188 108.625 -19.671875 C 109.644531 -18.847656 110.78125 -18.4375 112.03125 -18.4375 C 113.050781 -18.4375 113.894531 -18.769531 114.5625 -19.4375 C 115.226562 -20.101562 116.070312 -20.59375 117.09375 -20.90625 C 117.25 -20.90625 117.734375 -20.984375 118.546875 -21.140625 C 119.367188 -21.296875 119.898438 -21.410156 120.140625 -21.484375 C 120.453125 -21.484375 120.957031 -21.679688 121.65625 -22.078125 C 122.363281 -22.472656 122.875 -22.828125 123.1875 -23.140625 C 125.851562 -23.523438 127.554688 -23.851562 128.296875 -24.125 C 129.046875 -24.40625 129.5 -24.546875 129.65625 -24.546875 C 129.726562 -24.617188 129.921875 -24.789062 130.234375 -25.0625 C 130.546875 -25.34375 130.878906 -25.660156 131.234375 -26.015625 C 131.585938 -26.367188 131.921875 -26.71875 132.234375 -27.0625 C 132.546875 -27.414062 132.78125 -27.671875 132.9375 -27.828125 C 133.25 -27.828125 133.757812 -28.019531 134.46875 -28.40625 C 135.175781 -28.800781 135.9375 -29.273438 136.75 -29.828125 C 137.570312 -30.378906 138.394531 -30.925781 139.21875 -31.46875 C 140.039062 -32.019531 140.726562 -32.453125 141.28125 -32.765625 C 141.664062 -33.003906 141.9375 -33.296875 142.09375 -33.640625 C 142.257812 -33.992188 142.535156 -34.367188 142.921875 -34.765625 C 144.097656 -36.410156 145.269531 -37.625 146.4375 -38.40625 C 147.613281 -39.1875 148.867188 -40.398438 150.203125 -42.046875 C 150.515625 -42.359375 150.960938 -42.847656 151.546875 -43.515625 C 152.140625 -44.179688 152.515625 -44.707031 152.671875 -45.09375 C 152.742188 -45.25 152.914062 -45.738281 153.1875 -46.5625 C 153.46875 -47.382812 153.765625 -47.835938 154.078125 -47.921875 C 155.097656 -48.773438 156.078125 -49.359375 157.015625 -49.671875 C 157.953125 -49.984375 158.929688 -50.140625 159.953125 -50.140625 C 160.503906 -50.140625 160.992188 -49.90625 161.421875 -49.4375 C 161.847656 -48.96875 162.195312 -48.421875 162.46875 -47.796875 C 162.75 -47.171875 162.96875 -46.484375 163.125 -45.734375 C 163.28125 -44.992188 163.359375 -44.390625 163.359375 -43.921875 C 163.359375 -42.359375 163.003906 -40.96875 162.296875 -39.75 C 161.597656 -38.539062 160.816406 -37.382812 159.953125 -36.28125 C 159.085938 -35.1875 158.242188 -34.070312 157.421875 -32.9375 C 156.597656 -31.800781 156.03125 -30.488281 155.71875 -29 C 155.40625 -28.769531 154.894531 -28.359375 154.1875 -27.765625 C 153.488281 -27.179688 152.785156 -26.535156 152.078125 -25.828125 C 151.378906 -25.128906 150.710938 -24.445312 150.078125 -23.78125 C 149.453125 -23.113281 149.0625 -22.625 148.90625 -22.3125 C 147.1875 -20.039062 145.617188 -18.453125 144.203125 -17.546875 C 142.796875 -16.648438 141.46875 -15.734375 140.21875 -14.796875 C 139.675781 -14.085938 139.265625 -13.363281 138.984375 -12.625 C 138.710938 -11.882812 138.109375 -11.316406 137.171875 -10.921875 C 136.078125 -10.296875 134.84375 -9.726562 133.46875 -9.21875 C 132.101562 -8.707031 130.632812 -8.257812 129.0625 -7.875 C 126.5625 -6.300781 124.332031 -5.238281 122.375 -4.6875 C 120.414062 -4.144531 118.378906 -3.519531 116.265625 -2.8125 L 111.5625 -0.234375 C 107.414062 0.00390625 104.554688 0.335938 102.984375 0.765625 C 101.421875 1.191406 100.484375 1.40625 100.171875 1.40625 C 97.671875 1.332031 95.96875 1.117188 95.0625 0.765625 C 94.164062 0.410156 93.5625 0.234375 93.25 0.234375 L 85.96875 2.578125 C 85.101562 2.503906 84.179688 2.425781 83.203125 2.34375 C 82.222656 2.269531 81.265625 2.171875 80.328125 2.046875 C 79.390625 1.929688 78.53125 1.773438 77.75 1.578125 C 76.96875 1.390625 76.378906 1.140625 75.984375 0.828125 C 73.867188 0.273438 71.675781 -0.113281 69.40625 -0.34375 C 67.132812 -0.582031 64.941406 -1.210938 62.828125 -2.234375 L 54.140625 -5.640625 C 53.984375 -5.796875 53.515625 -5.96875 52.734375 -6.15625 C 51.953125 -6.351562 51.40625 -6.453125 51.09375 -6.453125 C 48.820312 -9.429688 47.523438 -10.921875 47.203125 -10.921875 L 44.390625 -10.921875 C 43.765625 -11.316406 43.039062 -12.082031 42.21875 -13.21875 C 41.394531 -14.351562 40.550781 -15.625 39.6875 -17.03125 C 39.6875 -17.96875 39.160156 -18.550781 38.109375 -18.78125 C 37.054688 -19.019531 36.132812 -19.140625 35.34375 -19.140625 C 34.875 -19.378906 34.5625 -19.710938 34.40625 -20.140625 C 34.25 -20.566406 34.113281 -21.035156 34 -21.546875 C 33.882812 -22.054688 33.75 -22.582031 33.59375 -23.125 C 33.4375 -23.675781 33.160156 -24.148438 32.765625 -24.546875 C 32.609375 -24.929688 32.21875 -25.492188 31.59375 -26.234375 C 30.96875 -26.984375 30.457031 -27.515625 30.0625 -27.828125 C 29.519531 -28.140625 29.085938 -28.375 28.765625 -28.53125 C 28.453125 -28.6875 28.175781 -28.820312 27.9375 -28.9375 C 27.707031 -29.0625 27.472656 -29.257812 27.234375 -29.53125 C 27.003906 -29.8125 26.695312 -30.265625 26.3125 -30.890625 L 23.375 -35.34375 L 20.78125 -38.171875 C 20.78125 -40.910156 20.582031 -42.828125 20.1875 -43.921875 C 19.800781 -45.015625 19.53125 -45.601562 19.375 -45.6875 C 19.375 -46 19.273438 -46.679688 19.078125 -47.734375 C 18.890625 -48.796875 18.71875 -49.40625 18.5625 -49.5625 C 16.988281 -50.257812 16.007812 -50.769531 15.625 -51.09375 C 15.3125 -51.320312 15.078125 -51.476562 14.921875 -51.5625 Z M 12.6875 -62.125 "/></g></g></g><g fill="#000000" fill-opacity="0.2"><g transform="translate(179.133103, 263.093895)"><g><path d="M 11.515625 -58.953125 C 11.515625 -59.972656 11.785156 -60.972656 12.328125 -61.953125 C 12.878906 -62.929688 13.15625 -64.003906 13.15625 -65.171875 L 10.09375 -78.21875 C 10.09375 -80.488281 10.226562 -83.03125 10.5 -85.84375 C 10.78125 -88.664062 11.117188 -91.132812 11.515625 -93.25 C 12.140625 -95.207031 12.644531 -97.300781 13.03125 -99.53125 C 13.425781 -101.757812 13.738281 -103.988281 13.96875 -106.21875 C 14.207031 -108.457031 14.363281 -110.570312 14.4375 -112.5625 C 14.519531 -114.5625 14.5625 -116.265625 14.5625 -117.671875 C 15.425781 -118.765625 16.285156 -119.703125 17.140625 -120.484375 C 18.003906 -121.273438 18.785156 -122.039062 19.484375 -122.78125 C 20.191406 -123.519531 20.78125 -124.378906 21.25 -125.359375 C 21.726562 -126.335938 22.082031 -127.570312 22.3125 -129.0625 L 28.765625 -135.765625 L 31.828125 -137.171875 C 32.296875 -137.398438 32.84375 -137.945312 33.46875 -138.8125 C 34.09375 -139.675781 34.738281 -140.675781 35.40625 -141.8125 C 36.070312 -142.945312 36.738281 -144.039062 37.40625 -145.09375 C 38.070312 -146.15625 38.71875 -146.957031 39.34375 -147.5 C 43.800781 -150.707031 48.203125 -153.679688 52.546875 -156.421875 C 56.898438 -159.171875 61.660156 -161.835938 66.828125 -164.421875 C 67.210938 -164.492188 67.601562 -164.609375 68 -164.765625 C 68.382812 -164.847656 68.753906 -164.925781 69.109375 -165 C 69.460938 -165.082031 69.757812 -165.125 70 -165.125 C 71.25 -165.28125 72.265625 -165.570312 73.046875 -166 C 73.828125 -166.425781 74.566406 -166.851562 75.265625 -167.28125 C 75.972656 -167.71875 76.738281 -168.113281 77.5625 -168.46875 C 78.382812 -168.820312 79.382812 -169 80.5625 -169 L 86.3125 -168.0625 L 88.078125 -169 L 92.421875 -170.28125 C 95.941406 -170.75 99.363281 -171.019531 102.6875 -171.09375 C 106.019531 -171.175781 109.410156 -171.21875 112.859375 -171.21875 C 113.953125 -171.21875 115.769531 -170.984375 118.3125 -170.515625 C 120.863281 -170.046875 123.523438 -169.476562 126.296875 -168.8125 C 129.078125 -168.15625 131.640625 -167.472656 133.984375 -166.765625 C 136.335938 -166.054688 137.910156 -165.507812 138.703125 -165.125 C 140.960938 -163.550781 143.015625 -161.664062 144.859375 -159.46875 C 146.703125 -157.28125 148.640625 -155.40625 150.671875 -153.84375 C 151.921875 -152.90625 153.148438 -152.125 154.359375 -151.5 C 155.578125 -150.875 156.773438 -150.265625 157.953125 -149.671875 C 159.128906 -149.085938 160.300781 -148.460938 161.46875 -147.796875 C 162.644531 -147.128906 163.785156 -146.285156 164.890625 -145.265625 C 165.273438 -145.109375 165.738281 -144.796875 166.28125 -144.328125 C 166.832031 -143.859375 167.382812 -143.328125 167.9375 -142.734375 C 168.488281 -142.148438 168.976562 -141.601562 169.40625 -141.09375 C 169.832031 -140.59375 170.164062 -140.222656 170.40625 -139.984375 L 171.21875 -136.34375 C 171.382812 -135.40625 171.796875 -134.523438 172.453125 -133.703125 C 173.117188 -132.878906 173.863281 -132.054688 174.6875 -131.234375 C 175.507812 -130.410156 176.289062 -129.609375 177.03125 -128.828125 C 177.78125 -128.046875 178.269531 -127.222656 178.5 -126.359375 C 179.132812 -125.421875 179.84375 -124.226562 180.625 -122.78125 C 181.40625 -121.332031 182.1875 -119.785156 182.96875 -118.140625 C 183.75 -116.492188 184.410156 -114.867188 184.953125 -113.265625 C 185.503906 -111.660156 185.863281 -110.269531 186.03125 -109.09375 L 186.03125 -102.171875 C 186.34375 -100.835938 186.632812 -99.78125 186.90625 -99 C 187.175781 -98.21875 187.585938 -97.394531 188.140625 -96.53125 C 188.453125 -95.675781 188.722656 -94.835938 188.953125 -94.015625 C 189.191406 -93.191406 189.3125 -92.113281 189.3125 -90.78125 C 189.3125 -90.625 189.269531 -90.347656 189.1875 -89.953125 C 189.113281 -89.566406 189.054688 -89.140625 189.015625 -88.671875 C 188.972656 -88.203125 188.910156 -87.75 188.828125 -87.3125 C 188.753906 -86.882812 188.71875 -86.550781 188.71875 -86.3125 L 189.90625 -83.265625 L 189.3125 -78.21875 C 189.46875 -77.820312 189.546875 -77.347656 189.546875 -76.796875 C 189.546875 -76.253906 189.546875 -75.628906 189.546875 -74.921875 C 189.546875 -72.421875 189.390625 -70.207031 189.078125 -68.28125 C 188.765625 -66.363281 188.453125 -65.132812 188.140625 -64.59375 C 187.273438 -62.082031 186.296875 -59.769531 185.203125 -57.65625 C 184.109375 -55.539062 182.972656 -53.445312 181.796875 -51.375 C 180.617188 -49.300781 179.460938 -47.164062 178.328125 -44.96875 C 177.191406 -42.78125 176.117188 -40.394531 175.109375 -37.8125 C 174.628906 -37.34375 174.15625 -36.988281 173.6875 -36.75 C 173.21875 -36.519531 172.75 -36.328125 172.28125 -36.171875 C 171.8125 -36.015625 171.34375 -35.78125 170.875 -35.46875 C 170.40625 -35.15625 169.972656 -34.722656 169.578125 -34.171875 C 169.347656 -33.785156 169.09375 -33.273438 168.8125 -32.640625 C 168.539062 -32.015625 168.226562 -31.332031 167.875 -30.59375 C 167.519531 -29.851562 167.144531 -29.128906 166.75 -28.421875 C 166.363281 -27.710938 165.9375 -27.125 165.46875 -26.65625 L 163.125 -25.25 C 162.5 -25.25 161.890625 -24.953125 161.296875 -24.359375 C 160.710938 -23.773438 160.421875 -23.25 160.421875 -22.78125 C 159.867188 -22.070312 159.082031 -21.109375 158.0625 -19.890625 C 157.050781 -18.679688 155.957031 -17.429688 154.78125 -16.140625 C 153.601562 -14.847656 152.46875 -13.65625 151.375 -12.5625 C 150.28125 -11.46875 149.378906 -10.644531 148.671875 -10.09375 C 148.128906 -9.78125 147.660156 -9.507812 147.265625 -9.28125 C 146.878906 -9.125 146.507812 -8.96875 146.15625 -8.8125 C 145.800781 -8.65625 145.546875 -8.578125 145.390625 -8.578125 L 132.359375 -4.109375 C 131.804688 -3.484375 131.410156 -2.992188 131.171875 -2.640625 C 130.941406 -2.285156 130.707031 -2.03125 130.46875 -1.875 C 130.238281 -1.71875 129.96875 -1.582031 129.65625 -1.46875 C 129.34375 -1.351562 128.832031 -1.21875 128.125 -1.0625 L 120.375 -0.359375 L 112.03125 3.28125 C 111.332031 3.4375 110.628906 3.554688 109.921875 3.640625 C 109.296875 3.722656 108.648438 3.78125 107.984375 3.8125 C 107.316406 3.851562 106.671875 3.875 106.046875 3.875 C 105.179688 3.875 104.140625 3.773438 102.921875 3.578125 C 101.710938 3.378906 100.441406 3.160156 99.109375 2.921875 C 97.785156 2.691406 96.476562 2.441406 95.1875 2.171875 C 93.894531 1.898438 92.738281 1.644531 91.71875 1.40625 C 90.15625 1.019531 88.507812 0.785156 86.78125 0.703125 C 85.0625 0.628906 83.34375 0.59375 81.625 0.59375 C 78.644531 0.59375 75.785156 0.492188 73.046875 0.296875 C 70.304688 0.0976562 67.601562 -0.546875 64.9375 -1.640625 L 63.1875 -4.109375 C 62.320312 -4.347656 61.300781 -4.523438 60.125 -4.640625 C 58.957031 -4.753906 57.765625 -4.925781 56.546875 -5.15625 C 55.335938 -5.394531 54.203125 -5.707031 53.140625 -6.09375 C 52.085938 -6.488281 51.285156 -7.082031 50.734375 -7.875 C 49.554688 -9.28125 48.613281 -10.472656 47.90625 -11.453125 C 47.207031 -12.429688 46.503906 -13.289062 45.796875 -14.03125 C 45.097656 -14.78125 44.21875 -15.484375 43.15625 -16.140625 C 42.101562 -16.804688 40.632812 -17.535156 38.75 -18.328125 L 35.109375 -19.140625 C 34.328125 -19.535156 33.46875 -20.316406 32.53125 -21.484375 C 31.59375 -22.660156 30.648438 -24.03125 29.703125 -25.59375 C 28.765625 -27.164062 27.804688 -28.851562 26.828125 -30.65625 C 25.847656 -32.457031 24.96875 -34.195312 24.1875 -35.875 C 23.40625 -37.5625 22.703125 -39.066406 22.078125 -40.390625 C 21.453125 -41.722656 20.984375 -42.742188 20.671875 -43.453125 C 19.960938 -45.328125 19.078125 -46.675781 18.015625 -47.5 C 16.960938 -48.320312 15.96875 -49.101562 15.03125 -49.84375 C 14.09375 -50.59375 13.269531 -51.59375 12.5625 -52.84375 C 11.863281 -54.101562 11.515625 -56.140625 11.515625 -58.953125 Z M 36.28125 -85.140625 C 36.28125 -83.578125 36.570312 -82.128906 37.15625 -80.796875 C 37.75 -79.460938 38.4375 -78.171875 39.21875 -76.921875 C 40.007812 -75.671875 40.734375 -74.414062 41.390625 -73.15625 C 42.054688 -71.90625 42.46875 -70.535156 42.625 -69.046875 C 42.78125 -68.816406 42.859375 -68.347656 42.859375 -67.640625 L 42.625 -62.015625 C 42.625 -61.304688 42.703125 -60.519531 42.859375 -59.65625 C 43.015625 -58.800781 43.410156 -57.941406 44.046875 -57.078125 C 44.515625 -56.210938 45.019531 -55.601562 45.5625 -55.25 C 46.113281 -54.90625 46.644531 -54.554688 47.15625 -54.203125 C 47.664062 -53.847656 48.132812 -53.4375 48.5625 -52.96875 C 48.988281 -52.5 49.320312 -51.753906 49.5625 -50.734375 L 49.671875 -49.5625 C 49.671875 -49.007812 49.648438 -48.5 49.609375 -48.03125 C 49.578125 -47.5625 49.5625 -46.859375 49.5625 -45.921875 C 49.5625 -44.585938 49.753906 -43.488281 50.140625 -42.625 C 50.453125 -41.769531 51.039062 -41.222656 51.90625 -40.984375 C 52.769531 -40.753906 53.472656 -40.285156 54.015625 -39.578125 C 55.191406 -36.523438 56.367188 -34 57.546875 -32 C 58.722656 -30 60.328125 -28.140625 62.359375 -26.421875 C 65.097656 -24.234375 67.894531 -22.117188 70.75 -20.078125 C 73.613281 -18.046875 76.570312 -16.226562 79.625 -14.625 C 82.675781 -13.019531 85.882812 -11.742188 89.25 -10.796875 C 92.613281 -9.859375 96.175781 -9.390625 99.9375 -9.390625 C 100.957031 -9.390625 101.816406 -9.46875 102.515625 -9.625 C 103.222656 -9.78125 103.910156 -9.972656 104.578125 -10.203125 C 105.242188 -10.441406 105.925781 -10.679688 106.625 -10.921875 C 107.332031 -11.160156 108.195312 -11.394531 109.21875 -11.625 C 111.40625 -11.9375 113.890625 -12.304688 116.671875 -12.734375 C 119.453125 -13.171875 121.976562 -13.390625 124.25 -13.390625 C 125.894531 -14.640625 127.734375 -15.8125 129.765625 -16.90625 C 131.804688 -18.007812 133.820312 -19.164062 135.8125 -20.375 C 137.8125 -21.59375 139.648438 -22.941406 141.328125 -24.421875 C 143.015625 -25.910156 144.367188 -27.675781 145.390625 -29.71875 L 151.5 -42.046875 C 152.59375 -42.828125 153.394531 -43.84375 153.90625 -45.09375 C 154.414062 -46.34375 154.828125 -47.632812 155.140625 -48.96875 C 155.453125 -50.300781 155.78125 -51.632812 156.125 -52.96875 C 156.476562 -54.300781 157.085938 -55.472656 157.953125 -56.484375 L 160.421875 -72.6875 C 160.421875 -73.945312 160.320312 -75.125 160.125 -76.21875 C 159.925781 -77.3125 159.828125 -78.644531 159.828125 -80.21875 L 161.25 -84.09375 C 161.25 -85.34375 160.953125 -86.847656 160.359375 -88.609375 C 159.773438 -90.367188 159.070312 -92.164062 158.25 -94 C 157.425781 -95.84375 156.582031 -97.644531 155.71875 -99.40625 C 154.863281 -101.175781 154.125 -102.644531 153.5 -103.8125 L 152.3125 -105.8125 L 152.90625 -109.09375 C 152.90625 -110.269531 152.707031 -111.304688 152.3125 -112.203125 C 151.925781 -113.109375 151.5 -113.929688 151.03125 -114.671875 C 150.5625 -115.421875 150.085938 -116.164062 149.609375 -116.90625 C 149.140625 -117.65625 148.828125 -118.5 148.671875 -119.4375 L 147.625 -125.1875 C 146.914062 -127.382812 145.460938 -129.945312 143.265625 -132.875 C 141.078125 -135.8125 138.613281 -138.6875 135.875 -141.5 C 133.132812 -144.320312 130.351562 -146.8125 127.53125 -148.96875 C 124.71875 -151.125 122.332031 -152.472656 120.375 -153.015625 C 119.195312 -153.410156 117.585938 -153.644531 115.546875 -153.71875 C 113.515625 -153.800781 111.875 -153.84375 110.625 -153.84375 L 107.578125 -157.609375 C 107.023438 -157.835938 106.0625 -158.164062 104.6875 -158.59375 C 103.320312 -159.03125 101.875 -159.460938 100.34375 -159.890625 C 98.820312 -160.328125 97.316406 -160.679688 95.828125 -160.953125 C 94.335938 -161.222656 93.203125 -161.359375 92.421875 -161.359375 C 90.859375 -161.359375 88.84375 -161.203125 86.375 -160.890625 C 83.90625 -160.578125 81.378906 -160.109375 78.796875 -159.484375 C 76.210938 -158.859375 73.820312 -158.070312 71.625 -157.125 C 69.4375 -156.1875 67.835938 -155.09375 66.828125 -153.84375 L 66.234375 -151.96875 C 65.609375 -151.5 64.960938 -151.125 64.296875 -150.84375 C 63.628906 -150.570312 63 -150.257812 62.40625 -149.90625 C 61.820312 -149.550781 61.316406 -149.117188 60.890625 -148.609375 C 60.460938 -148.109375 60.128906 -147.347656 59.890625 -146.328125 C 58.085938 -145.859375 56.851562 -145.425781 56.1875 -145.03125 C 55.53125 -144.644531 55.0625 -144.21875 54.78125 -143.75 C 54.507812 -143.28125 54.21875 -142.75 53.90625 -142.15625 C 53.59375 -141.570312 52.890625 -140.847656 51.796875 -139.984375 C 48.734375 -137.953125 46.265625 -135.328125 44.390625 -132.109375 C 42.515625 -128.898438 41.085938 -125.414062 40.109375 -121.65625 C 39.128906 -117.90625 38.460938 -114.050781 38.109375 -110.09375 C 37.753906 -106.144531 37.578125 -102.488281 37.578125 -99.125 L 38.171875 -90.78125 C 38.171875 -90.070312 37.851562 -89.226562 37.21875 -88.25 C 36.59375 -87.269531 36.28125 -86.234375 36.28125 -85.140625 Z M 36.28125 -85.140625 "/></g></g></g><g fill="#000000" fill-opacity="1"><g transform="translate(-3.535041, 252.464404)"><g><path d="M 12.6875 -62.125 C 12.6875 -62.363281 12.625 -62.71875 12.5 -63.1875 C 12.382812 -63.65625 12.269531 -64.140625 12.15625 -64.640625 C 12.039062 -65.148438 11.921875 -65.617188 11.796875 -66.046875 C 11.679688 -66.484375 11.625 -66.820312 11.625 -67.0625 C 11.46875 -67.601562 11.390625 -68.03125 11.390625 -68.34375 C 11.390625 -68.65625 11.390625 -68.972656 11.390625 -69.296875 C 11.390625 -69.921875 11.46875 -70.425781 11.625 -70.8125 C 11.78125 -71.207031 12.054688 -71.796875 12.453125 -72.578125 L 11.046875 -96.0625 L 11.625 -102.640625 C 11.78125 -102.878906 11.9375 -103.15625 12.09375 -103.46875 C 12.25 -103.695312 12.363281 -103.910156 12.4375 -104.109375 C 12.519531 -104.304688 12.601562 -104.484375 12.6875 -104.640625 C 13.382812 -106.285156 13.929688 -107.847656 14.328125 -109.328125 C 14.722656 -110.816406 15.191406 -112.382812 15.734375 -114.03125 C 16.128906 -115.59375 16.328125 -117.082031 16.328125 -118.5 C 16.328125 -120.21875 16.640625 -121.625 17.265625 -122.71875 C 18.285156 -125.070312 19.441406 -127.320312 20.734375 -129.46875 C 22.023438 -131.625 23.609375 -134.148438 25.484375 -137.046875 C 25.640625 -137.285156 25.796875 -137.539062 25.953125 -137.8125 C 26.109375 -138.082031 26.265625 -138.335938 26.421875 -138.578125 C 27.128906 -139.597656 27.894531 -140.734375 28.71875 -141.984375 C 29.539062 -143.234375 29.988281 -143.9375 30.0625 -144.09375 C 31 -145.507812 31.914062 -146.566406 32.8125 -147.265625 C 33.71875 -147.972656 34.796875 -148.914062 36.046875 -150.09375 C 38.710938 -152.125 41.0625 -154 43.09375 -155.71875 C 45.132812 -157.445312 47.5625 -159.171875 50.375 -160.890625 L 53.3125 -162.1875 C 54.019531 -162.414062 54.800781 -162.742188 55.65625 -163.171875 C 56.519531 -163.609375 57.421875 -164.0625 58.359375 -164.53125 C 59.304688 -165 60.207031 -165.425781 61.0625 -165.8125 C 61.925781 -166.207031 62.710938 -166.523438 63.421875 -166.765625 L 75.390625 -168.40625 C 75.703125 -168.40625 76.210938 -168.519531 76.921875 -168.75 C 77.628906 -168.988281 78.140625 -169.304688 78.453125 -169.703125 C 81.816406 -169.773438 84.515625 -169.847656 86.546875 -169.921875 C 88.585938 -170.003906 90.507812 -170.046875 92.3125 -170.046875 C 94.738281 -170.046875 97.125 -170.003906 99.46875 -169.921875 C 101.820312 -169.847656 104.171875 -169.773438 106.515625 -169.703125 C 108.003906 -169.304688 109.21875 -169.007812 110.15625 -168.8125 C 111.09375 -168.625 111.835938 -168.46875 112.390625 -168.34375 C 112.941406 -168.226562 113.332031 -168.171875 113.5625 -168.171875 C 113.800781 -168.171875 114.035156 -168.171875 114.265625 -168.171875 C 115.203125 -168.253906 115.960938 -168.3125 116.546875 -168.34375 C 117.140625 -168.382812 117.691406 -168.40625 118.203125 -168.40625 C 118.710938 -168.40625 119.28125 -168.40625 119.90625 -168.40625 C 120.53125 -168.40625 121.351562 -168.40625 122.375 -168.40625 C 123.226562 -167.9375 124.164062 -167.269531 125.1875 -166.40625 C 126.207031 -165.550781 127.148438 -165.125 128.015625 -165.125 C 128.328125 -165.125 128.640625 -165.238281 128.953125 -165.46875 C 129.265625 -165.707031 129.5 -165.828125 129.65625 -165.828125 L 136.578125 -165.828125 C 137.597656 -165.984375 138.554688 -166.3125 139.453125 -166.8125 C 140.359375 -167.320312 141.257812 -167.867188 142.15625 -168.453125 C 143.0625 -169.046875 143.941406 -169.554688 144.796875 -169.984375 C 145.660156 -170.421875 146.640625 -170.640625 147.734375 -170.640625 C 149.066406 -170.640625 150.222656 -170.226562 151.203125 -169.40625 C 152.179688 -168.582031 152.671875 -167.390625 152.671875 -165.828125 L 152.671875 -146.328125 C 152.742188 -145.929688 152.859375 -145.300781 153.015625 -144.4375 C 153.179688 -143.582031 153.265625 -142.960938 153.265625 -142.578125 C 153.960938 -138.816406 154.78125 -134.957031 155.71875 -131 C 156.664062 -127.050781 157.140625 -123.195312 157.140625 -119.4375 C 157.054688 -118.96875 156.859375 -118.457031 156.546875 -117.90625 C 156.234375 -117.363281 155.859375 -116.851562 155.421875 -116.375 C 154.992188 -115.90625 154.582031 -115.492188 154.1875 -115.140625 C 153.800781 -114.796875 153.492188 -114.625 153.265625 -114.625 C 153.265625 -114.46875 152.988281 -114.390625 152.4375 -114.390625 C 150.875 -114.390625 149.523438 -114.738281 148.390625 -115.4375 C 147.253906 -116.144531 146.289062 -117.046875 145.5 -118.140625 C 144.71875 -119.234375 144.128906 -120.40625 143.734375 -121.65625 C 143.347656 -122.914062 143.078125 -124.09375 142.921875 -125.1875 L 142.921875 -129.0625 C 142.765625 -130.15625 142.546875 -131.035156 142.265625 -131.703125 C 141.992188 -132.367188 141.660156 -132.957031 141.265625 -133.46875 C 140.878906 -133.976562 140.429688 -134.503906 139.921875 -135.046875 C 139.421875 -135.597656 138.851562 -136.304688 138.21875 -137.171875 C 137.363281 -138.023438 136.859375 -138.976562 136.703125 -140.03125 C 136.546875 -141.09375 136.113281 -142.175781 135.40625 -143.28125 C 135.25 -143.59375 134.894531 -143.90625 134.34375 -144.21875 C 133.800781 -144.53125 133.453125 -144.6875 133.296875 -144.6875 L 125.78125 -150.09375 C 125.78125 -150.164062 125.601562 -150.378906 125.25 -150.734375 C 124.894531 -151.085938 124.519531 -151.476562 124.125 -151.90625 C 123.738281 -152.332031 123.367188 -152.742188 123.015625 -153.140625 C 122.660156 -153.535156 122.445312 -153.8125 122.375 -153.96875 C 121.507812 -154.4375 121.039062 -154.671875 120.96875 -154.671875 C 120.8125 -154.515625 120.257812 -154.4375 119.3125 -154.4375 C 118.769531 -154.4375 118.5 -154.515625 118.5 -154.671875 C 116.851562 -154.984375 115.265625 -155.488281 113.734375 -156.1875 C 112.210938 -156.894531 110.828125 -157.601562 109.578125 -158.3125 L 95.359375 -158.890625 C 94.804688 -159.515625 94.253906 -159.90625 93.703125 -160.0625 C 93.160156 -160.21875 92.5 -160.296875 91.71875 -160.296875 C 89.0625 -160.296875 86.789062 -160.0625 84.90625 -159.59375 C 83.03125 -159.125 81.304688 -158.460938 79.734375 -157.609375 C 79.660156 -157.453125 79.582031 -157.332031 79.5 -157.25 C 79.34375 -157.09375 79.1875 -157.015625 79.03125 -157.015625 C 77.9375 -156.148438 76.742188 -155.484375 75.453125 -155.015625 C 74.160156 -154.546875 72.847656 -154.09375 71.515625 -153.65625 C 70.191406 -153.226562 68.882812 -152.757812 67.59375 -152.25 C 66.300781 -151.75 65.101562 -151.03125 64 -150.09375 L 59.546875 -146.328125 C 59.460938 -146.171875 59.066406 -145.835938 58.359375 -145.328125 C 57.660156 -144.816406 57.269531 -144.40625 57.1875 -144.09375 C 56.800781 -143.238281 56.132812 -142.4375 55.1875 -141.6875 C 54.25 -140.945312 53.625 -140.5 53.3125 -140.34375 C 52.6875 -139.476562 52.238281 -138.554688 51.96875 -137.578125 C 51.695312 -136.597656 51.40625 -136.03125 51.09375 -135.875 L 48.390625 -132 L 45.09375 -124.484375 L 43.5625 -117.671875 C 43.488281 -117.515625 43.3125 -117.238281 43.03125 -116.84375 C 42.757812 -116.457031 42.445312 -116.046875 42.09375 -115.609375 C 41.75 -115.179688 41.398438 -114.8125 41.046875 -114.5 C 40.691406 -114.1875 40.4375 -114.03125 40.28125 -114.03125 C 40.28125 -113.957031 40.238281 -113.644531 40.15625 -113.09375 C 40.082031 -112.539062 40.023438 -111.894531 39.984375 -111.15625 C 39.941406 -110.414062 39.878906 -109.671875 39.796875 -108.921875 C 39.722656 -108.179688 39.6875 -107.613281 39.6875 -107.21875 L 39.6875 -104.046875 L 40.28125 -92.078125 L 41.6875 -86.3125 L 40.28125 -79.859375 C 40.28125 -76.097656 40.785156 -72.335938 41.796875 -68.578125 C 42.816406 -64.828125 43.914062 -61.1875 45.09375 -57.65625 C 45.25 -57.582031 45.953125 -56.644531 47.203125 -54.84375 L 48.390625 -51.5625 C 48.617188 -50.925781 48.96875 -50.316406 49.4375 -49.734375 C 49.90625 -49.148438 50.429688 -48.582031 51.015625 -48.03125 C 51.609375 -47.476562 52.175781 -46.96875 52.71875 -46.5 C 53.269531 -46.03125 53.742188 -45.5625 54.140625 -45.09375 C 54.535156 -43.6875 54.8125 -42.707031 54.96875 -42.15625 C 55.125 -41.613281 55.28125 -41.242188 55.4375 -41.046875 C 55.59375 -40.847656 55.785156 -40.691406 56.015625 -40.578125 C 56.253906 -40.460938 56.644531 -40.128906 57.1875 -39.578125 C 57.738281 -39.335938 58.191406 -38.960938 58.546875 -38.453125 C 58.898438 -37.953125 59.234375 -37.382812 59.546875 -36.75 C 59.859375 -36.125 60.171875 -35.5 60.484375 -34.875 C 60.796875 -34.25 61.222656 -33.742188 61.765625 -33.359375 C 63.253906 -33.117188 64.523438 -32.976562 65.578125 -32.9375 C 66.640625 -32.90625 67.601562 -32.414062 68.46875 -31.46875 C 70.34375 -29.90625 72.101562 -28.554688 73.75 -27.421875 C 75.394531 -26.285156 77.054688 -25.304688 78.734375 -24.484375 C 80.421875 -23.660156 82.203125 -22.953125 84.078125 -22.359375 C 85.960938 -21.773438 88.078125 -21.289062 90.421875 -20.90625 L 96.53125 -19.140625 C 98.570312 -19.140625 100.238281 -19.429688 101.53125 -20.015625 C 102.820312 -20.609375 104.09375 -20.90625 105.34375 -20.90625 C 106.519531 -20.90625 107.613281 -20.492188 108.625 -19.671875 C 109.644531 -18.847656 110.78125 -18.4375 112.03125 -18.4375 C 113.050781 -18.4375 113.894531 -18.769531 114.5625 -19.4375 C 115.226562 -20.101562 116.070312 -20.59375 117.09375 -20.90625 C 117.25 -20.90625 117.734375 -20.984375 118.546875 -21.140625 C 119.367188 -21.296875 119.898438 -21.410156 120.140625 -21.484375 C 120.453125 -21.484375 120.957031 -21.679688 121.65625 -22.078125 C 122.363281 -22.472656 122.875 -22.828125 123.1875 -23.140625 C 125.851562 -23.523438 127.554688 -23.851562 128.296875 -24.125 C 129.046875 -24.40625 129.5 -24.546875 129.65625 -24.546875 C 129.726562 -24.617188 129.921875 -24.789062 130.234375 -25.0625 C 130.546875 -25.34375 130.878906 -25.660156 131.234375 -26.015625 C 131.585938 -26.367188 131.921875 -26.71875 132.234375 -27.0625 C 132.546875 -27.414062 132.78125 -27.671875 132.9375 -27.828125 C 133.25 -27.828125 133.757812 -28.019531 134.46875 -28.40625 C 135.175781 -28.800781 135.9375 -29.273438 136.75 -29.828125 C 137.570312 -30.378906 138.394531 -30.925781 139.21875 -31.46875 C 140.039062 -32.019531 140.726562 -32.453125 141.28125 -32.765625 C 141.664062 -33.003906 141.9375 -33.296875 142.09375 -33.640625 C 142.257812 -33.992188 142.535156 -34.367188 142.921875 -34.765625 C 144.097656 -36.410156 145.269531 -37.625 146.4375 -38.40625 C 147.613281 -39.1875 148.867188 -40.398438 150.203125 -42.046875 C 150.515625 -42.359375 150.960938 -42.847656 151.546875 -43.515625 C 152.140625 -44.179688 152.515625 -44.707031 152.671875 -45.09375 C 152.742188 -45.25 152.914062 -45.738281 153.1875 -46.5625 C 153.46875 -47.382812 153.765625 -47.835938 154.078125 -47.921875 C 155.097656 -48.773438 156.078125 -49.359375 157.015625 -49.671875 C 157.953125 -49.984375 158.929688 -50.140625 159.953125 -50.140625 C 160.503906 -50.140625 160.992188 -49.90625 161.421875 -49.4375 C 161.847656 -48.96875 162.195312 -48.421875 162.46875 -47.796875 C 162.75 -47.171875 162.96875 -46.484375 163.125 -45.734375 C 163.28125 -44.992188 163.359375 -44.390625 163.359375 -43.921875 C 163.359375 -42.359375 163.003906 -40.96875 162.296875 -39.75 C 161.597656 -38.539062 160.816406 -37.382812 159.953125 -36.28125 C 159.085938 -35.1875 158.242188 -34.070312 157.421875 -32.9375 C 156.597656 -31.800781 156.03125 -30.488281 155.71875 -29 C 155.40625 -28.769531 154.894531 -28.359375 154.1875 -27.765625 C 153.488281 -27.179688 152.785156 -26.535156 152.078125 -25.828125 C 151.378906 -25.128906 150.710938 -24.445312 150.078125 -23.78125 C 149.453125 -23.113281 149.0625 -22.625 148.90625 -22.3125 C 147.1875 -20.039062 145.617188 -18.453125 144.203125 -17.546875 C 142.796875 -16.648438 141.46875 -15.734375 140.21875 -14.796875 C 139.675781 -14.085938 139.265625 -13.363281 138.984375 -12.625 C 138.710938 -11.882812 138.109375 -11.316406 137.171875 -10.921875 C 136.078125 -10.296875 134.84375 -9.726562 133.46875 -9.21875 C 132.101562 -8.707031 130.632812 -8.257812 129.0625 -7.875 C 126.5625 -6.300781 124.332031 -5.238281 122.375 -4.6875 C 120.414062 -4.144531 118.378906 -3.519531 116.265625 -2.8125 L 111.5625 -0.234375 C 107.414062 0.00390625 104.554688 0.335938 102.984375 0.765625 C 101.421875 1.191406 100.484375 1.40625 100.171875 1.40625 C 97.671875 1.332031 95.96875 1.117188 95.0625 0.765625 C 94.164062 0.410156 93.5625 0.234375 93.25 0.234375 L 85.96875 2.578125 C 85.101562 2.503906 84.179688 2.425781 83.203125 2.34375 C 82.222656 2.269531 81.265625 2.171875 80.328125 2.046875 C 79.390625 1.929688 78.53125 1.773438 77.75 1.578125 C 76.96875 1.390625 76.378906 1.140625 75.984375 0.828125 C 73.867188 0.273438 71.675781 -0.113281 69.40625 -0.34375 C 67.132812 -0.582031 64.941406 -1.210938 62.828125 -2.234375 L 54.140625 -5.640625 C 53.984375 -5.796875 53.515625 -5.96875 52.734375 -6.15625 C 51.953125 -6.351562 51.40625 -6.453125 51.09375 -6.453125 C 48.820312 -9.429688 47.523438 -10.921875 47.203125 -10.921875 L 44.390625 -10.921875 C 43.765625 -11.316406 43.039062 -12.082031 42.21875 -13.21875 C 41.394531 -14.351562 40.550781 -15.625 39.6875 -17.03125 C 39.6875 -17.96875 39.160156 -18.550781 38.109375 -18.78125 C 37.054688 -19.019531 36.132812 -19.140625 35.34375 -19.140625 C 34.875 -19.378906 34.5625 -19.710938 34.40625 -20.140625 C 34.25 -20.566406 34.113281 -21.035156 34 -21.546875 C 33.882812 -22.054688 33.75 -22.582031 33.59375 -23.125 C 33.4375 -23.675781 33.160156 -24.148438 32.765625 -24.546875 C 32.609375 -24.929688 32.21875 -25.492188 31.59375 -26.234375 C 30.96875 -26.984375 30.457031 -27.515625 30.0625 -27.828125 C 29.519531 -28.140625 29.085938 -28.375 28.765625 -28.53125 C 28.453125 -28.6875 28.175781 -28.820312 27.9375 -28.9375 C 27.707031 -29.0625 27.472656 -29.257812 27.234375 -29.53125 C 27.003906 -29.8125 26.695312 -30.265625 26.3125 -30.890625 L 23.375 -35.34375 L 20.78125 -38.171875 C 20.78125 -40.910156 20.582031 -42.828125 20.1875 -43.921875 C 19.800781 -45.015625 19.53125 -45.601562 19.375 -45.6875 C 19.375 -46 19.273438 -46.679688 19.078125 -47.734375 C 18.890625 -48.796875 18.71875 -49.40625 18.5625 -49.5625 C 16.988281 -50.257812 16.007812 -50.769531 15.625 -51.09375 C 15.3125 -51.320312 15.078125 -51.476562 14.921875 -51.5625 Z M 12.6875 -62.125 "/></g></g></g><g fill="#000000" fill-opacity="1"><g transform="translate(168.503615, 252.464404)"><g><path d="M 11.515625 -58.953125 C 11.515625 -59.972656 11.785156 -60.972656 12.328125 -61.953125 C 12.878906 -62.929688 13.15625 -64.003906 13.15625 -65.171875 L 10.09375 -78.21875 C 10.09375 -80.488281 10.226562 -83.03125 10.5 -85.84375 C 10.78125 -88.664062 11.117188 -91.132812 11.515625 -93.25 C 12.140625 -95.207031 12.644531 -97.300781 13.03125 -99.53125 C 13.425781 -101.757812 13.738281 -103.988281 13.96875 -106.21875 C 14.207031 -108.457031 14.363281 -110.570312 14.4375 -112.5625 C 14.519531 -114.5625 14.5625 -116.265625 14.5625 -117.671875 C 15.425781 -118.765625 16.285156 -119.703125 17.140625 -120.484375 C 18.003906 -121.273438 18.785156 -122.039062 19.484375 -122.78125 C 20.191406 -123.519531 20.78125 -124.378906 21.25 -125.359375 C 21.726562 -126.335938 22.082031 -127.570312 22.3125 -129.0625 L 28.765625 -135.765625 L 31.828125 -137.171875 C 32.296875 -137.398438 32.84375 -137.945312 33.46875 -138.8125 C 34.09375 -139.675781 34.738281 -140.675781 35.40625 -141.8125 C 36.070312 -142.945312 36.738281 -144.039062 37.40625 -145.09375 C 38.070312 -146.15625 38.71875 -146.957031 39.34375 -147.5 C 43.800781 -150.707031 48.203125 -153.679688 52.546875 -156.421875 C 56.898438 -159.171875 61.660156 -161.835938 66.828125 -164.421875 C 67.210938 -164.492188 67.601562 -164.609375 68 -164.765625 C 68.382812 -164.847656 68.753906 -164.925781 69.109375 -165 C 69.460938 -165.082031 69.757812 -165.125 70 -165.125 C 71.25 -165.28125 72.265625 -165.570312 73.046875 -166 C 73.828125 -166.425781 74.566406 -166.851562 75.265625 -167.28125 C 75.972656 -167.71875 76.738281 -168.113281 77.5625 -168.46875 C 78.382812 -168.820312 79.382812 -169 80.5625 -169 L 86.3125 -168.0625 L 88.078125 -169 L 92.421875 -170.28125 C 95.941406 -170.75 99.363281 -171.019531 102.6875 -171.09375 C 106.019531 -171.175781 109.410156 -171.21875 112.859375 -171.21875 C 113.953125 -171.21875 115.769531 -170.984375 118.3125 -170.515625 C 120.863281 -170.046875 123.523438 -169.476562 126.296875 -168.8125 C 129.078125 -168.15625 131.640625 -167.472656 133.984375 -166.765625 C 136.335938 -166.054688 137.910156 -165.507812 138.703125 -165.125 C 140.960938 -163.550781 143.015625 -161.664062 144.859375 -159.46875 C 146.703125 -157.28125 148.640625 -155.40625 150.671875 -153.84375 C 151.921875 -152.90625 153.148438 -152.125 154.359375 -151.5 C 155.578125 -150.875 156.773438 -150.265625 157.953125 -149.671875 C 159.128906 -149.085938 160.300781 -148.460938 161.46875 -147.796875 C 162.644531 -147.128906 163.785156 -146.285156 164.890625 -145.265625 C 165.273438 -145.109375 165.738281 -144.796875 166.28125 -144.328125 C 166.832031 -143.859375 167.382812 -143.328125 167.9375 -142.734375 C 168.488281 -142.148438 168.976562 -141.601562 169.40625 -141.09375 C 169.832031 -140.59375 170.164062 -140.222656 170.40625 -139.984375 L 171.21875 -136.34375 C 171.382812 -135.40625 171.796875 -134.523438 172.453125 -133.703125 C 173.117188 -132.878906 173.863281 -132.054688 174.6875 -131.234375 C 175.507812 -130.410156 176.289062 -129.609375 177.03125 -128.828125 C 177.78125 -128.046875 178.269531 -127.222656 178.5 -126.359375 C 179.132812 -125.421875 179.84375 -124.226562 180.625 -122.78125 C 181.40625 -121.332031 182.1875 -119.785156 182.96875 -118.140625 C 183.75 -116.492188 184.410156 -114.867188 184.953125 -113.265625 C 185.503906 -111.660156 185.863281 -110.269531 186.03125 -109.09375 L 186.03125 -102.171875 C 186.34375 -100.835938 186.632812 -99.78125 186.90625 -99 C 187.175781 -98.21875 187.585938 -97.394531 188.140625 -96.53125 C 188.453125 -95.675781 188.722656 -94.835938 188.953125 -94.015625 C 189.191406 -93.191406 189.3125 -92.113281 189.3125 -90.78125 C 189.3125 -90.625 189.269531 -90.347656 189.1875 -89.953125 C 189.113281 -89.566406 189.054688 -89.140625 189.015625 -88.671875 C 188.972656 -88.203125 188.910156 -87.75 188.828125 -87.3125 C 188.753906 -86.882812 188.71875 -86.550781 188.71875 -86.3125 L 189.90625 -83.265625 L 189.3125 -78.21875 C 189.46875 -77.820312 189.546875 -77.347656 189.546875 -76.796875 C 189.546875 -76.253906 189.546875 -75.628906 189.546875 -74.921875 C 189.546875 -72.421875 189.390625 -70.207031 189.078125 -68.28125 C 188.765625 -66.363281 188.453125 -65.132812 188.140625 -64.59375 C 187.273438 -62.082031 186.296875 -59.769531 185.203125 -57.65625 C 184.109375 -55.539062 182.972656 -53.445312 181.796875 -51.375 C 180.617188 -49.300781 179.460938 -47.164062 178.328125 -44.96875 C 177.191406 -42.78125 176.117188 -40.394531 175.109375 -37.8125 C 174.628906 -37.34375 174.15625 -36.988281 173.6875 -36.75 C 173.21875 -36.519531 172.75 -36.328125 172.28125 -36.171875 C 171.8125 -36.015625 171.34375 -35.78125 170.875 -35.46875 C 170.40625 -35.15625 169.972656 -34.722656 169.578125 -34.171875 C 169.347656 -33.785156 169.09375 -33.273438 168.8125 -32.640625 C 168.539062 -32.015625 168.226562 -31.332031 167.875 -30.59375 C 167.519531 -29.851562 167.144531 -29.128906 166.75 -28.421875 C 166.363281 -27.710938 165.9375 -27.125 165.46875 -26.65625 L 163.125 -25.25 C 162.5 -25.25 161.890625 -24.953125 161.296875 -24.359375 C 160.710938 -23.773438 160.421875 -23.25 160.421875 -22.78125 C 159.867188 -22.070312 159.082031 -21.109375 158.0625 -19.890625 C 157.050781 -18.679688 155.957031 -17.429688 154.78125 -16.140625 C 153.601562 -14.847656 152.46875 -13.65625 151.375 -12.5625 C 150.28125 -11.46875 149.378906 -10.644531 148.671875 -10.09375 C 148.128906 -9.78125 147.660156 -9.507812 147.265625 -9.28125 C 146.878906 -9.125 146.507812 -8.96875 146.15625 -8.8125 C 145.800781 -8.65625 145.546875 -8.578125 145.390625 -8.578125 L 132.359375 -4.109375 C 131.804688 -3.484375 131.410156 -2.992188 131.171875 -2.640625 C 130.941406 -2.285156 130.707031 -2.03125 130.46875 -1.875 C 130.238281 -1.71875 129.96875 -1.582031 129.65625 -1.46875 C 129.34375 -1.351562 128.832031 -1.21875 128.125 -1.0625 L 120.375 -0.359375 L 112.03125 3.28125 C 111.332031 3.4375 110.628906 3.554688 109.921875 3.640625 C 109.296875 3.722656 108.648438 3.78125 107.984375 3.8125 C 107.316406 3.851562 106.671875 3.875 106.046875 3.875 C 105.179688 3.875 104.140625 3.773438 102.921875 3.578125 C 101.710938 3.378906 100.441406 3.160156 99.109375 2.921875 C 97.785156 2.691406 96.476562 2.441406 95.1875 2.171875 C 93.894531 1.898438 92.738281 1.644531 91.71875 1.40625 C 90.15625 1.019531 88.507812 0.785156 86.78125 0.703125 C 85.0625 0.628906 83.34375 0.59375 81.625 0.59375 C 78.644531 0.59375 75.785156 0.492188 73.046875 0.296875 C 70.304688 0.0976562 67.601562 -0.546875 64.9375 -1.640625 L 63.1875 -4.109375 C 62.320312 -4.347656 61.300781 -4.523438 60.125 -4.640625 C 58.957031 -4.753906 57.765625 -4.925781 56.546875 -5.15625 C 55.335938 -5.394531 54.203125 -5.707031 53.140625 -6.09375 C 52.085938 -6.488281 51.285156 -7.082031 50.734375 -7.875 C 49.554688 -9.28125 48.613281 -10.472656 47.90625 -11.453125 C 47.207031 -12.429688 46.503906 -13.289062 45.796875 -14.03125 C 45.097656 -14.78125 44.21875 -15.484375 43.15625 -16.140625 C 42.101562 -16.804688 40.632812 -17.535156 38.75 -18.328125 L 35.109375 -19.140625 C 34.328125 -19.535156 33.46875 -20.316406 32.53125 -21.484375 C 31.59375 -22.660156 30.648438 -24.03125 29.703125 -25.59375 C 28.765625 -27.164062 27.804688 -28.851562 26.828125 -30.65625 C 25.847656 -32.457031 24.96875 -34.195312 24.1875 -35.875 C 23.40625 -37.5625 22.703125 -39.066406 22.078125 -40.390625 C 21.453125 -41.722656 20.984375 -42.742188 20.671875 -43.453125 C 19.960938 -45.328125 19.078125 -46.675781 18.015625 -47.5 C 16.960938 -48.320312 15.96875 -49.101562 15.03125 -49.84375 C 14.09375 -50.59375 13.269531 -51.59375 12.5625 -52.84375 C 11.863281 -54.101562 11.515625 -56.140625 11.515625 -58.953125 Z M 36.28125 -85.140625 C 36.28125 -83.578125 36.570312 -82.128906 37.15625 -80.796875 C 37.75 -79.460938 38.4375 -78.171875 39.21875 -76.921875 C 40.007812 -75.671875 40.734375 -74.414062 41.390625 -73.15625 C 42.054688 -71.90625 42.46875 -70.535156 42.625 -69.046875 C 42.78125 -68.816406 42.859375 -68.347656 42.859375 -67.640625 L 42.625 -62.015625 C 42.625 -61.304688 42.703125 -60.519531 42.859375 -59.65625 C 43.015625 -58.800781 43.410156 -57.941406 44.046875 -57.078125 C 44.515625 -56.210938 45.019531 -55.601562 45.5625 -55.25 C 46.113281 -54.90625 46.644531 -54.554688 47.15625 -54.203125 C 47.664062 -53.847656 48.132812 -53.4375 48.5625 -52.96875 C 48.988281 -52.5 49.320312 -51.753906 49.5625 -50.734375 L 49.671875 -49.5625 C 49.671875 -49.007812 49.648438 -48.5 49.609375 -48.03125 C 49.578125 -47.5625 49.5625 -46.859375 49.5625 -45.921875 C 49.5625 -44.585938 49.753906 -43.488281 50.140625 -42.625 C 50.453125 -41.769531 51.039062 -41.222656 51.90625 -40.984375 C 52.769531 -40.753906 53.472656 -40.285156 54.015625 -39.578125 C 55.191406 -36.523438 56.367188 -34 57.546875 -32 C 58.722656 -30 60.328125 -28.140625 62.359375 -26.421875 C 65.097656 -24.234375 67.894531 -22.117188 70.75 -20.078125 C 73.613281 -18.046875 76.570312 -16.226562 79.625 -14.625 C 82.675781 -13.019531 85.882812 -11.742188 89.25 -10.796875 C 92.613281 -9.859375 96.175781 -9.390625 99.9375 -9.390625 C 100.957031 -9.390625 101.816406 -9.46875 102.515625 -9.625 C 103.222656 -9.78125 103.910156 -9.972656 104.578125 -10.203125 C 105.242188 -10.441406 105.925781 -10.679688 106.625 -10.921875 C 107.332031 -11.160156 108.195312 -11.394531 109.21875 -11.625 C 111.40625 -11.9375 113.890625 -12.304688 116.671875 -12.734375 C 119.453125 -13.171875 121.976562 -13.390625 124.25 -13.390625 C 125.894531 -14.640625 127.734375 -15.8125 129.765625 -16.90625 C 131.804688 -18.007812 133.820312 -19.164062 135.8125 -20.375 C 137.8125 -21.59375 139.648438 -22.941406 141.328125 -24.421875 C 143.015625 -25.910156 144.367188 -27.675781 145.390625 -29.71875 L 151.5 -42.046875 C 152.59375 -42.828125 153.394531 -43.84375 153.90625 -45.09375 C 154.414062 -46.34375 154.828125 -47.632812 155.140625 -48.96875 C 155.453125 -50.300781 155.78125 -51.632812 156.125 -52.96875 C 156.476562 -54.300781 157.085938 -55.472656 157.953125 -56.484375 L 160.421875 -72.6875 C 160.421875 -73.945312 160.320312 -75.125 160.125 -76.21875 C 159.925781 -77.3125 159.828125 -78.644531 159.828125 -80.21875 L 161.25 -84.09375 C 161.25 -85.34375 160.953125 -86.847656 160.359375 -88.609375 C 159.773438 -90.367188 159.070312 -92.164062 158.25 -94 C 157.425781 -95.84375 156.582031 -97.644531 155.71875 -99.40625 C 154.863281 -101.175781 154.125 -102.644531 153.5 -103.8125 L 152.3125 -105.8125 L 152.90625 -109.09375 C 152.90625 -110.269531 152.707031 -111.304688 152.3125 -112.203125 C 151.925781 -113.109375 151.5 -113.929688 151.03125 -114.671875 C 150.5625 -115.421875 150.085938 -116.164062 149.609375 -116.90625 C 149.140625 -117.65625 148.828125 -118.5 148.671875 -119.4375 L 147.625 -125.1875 C 146.914062 -127.382812 145.460938 -129.945312 143.265625 -132.875 C 141.078125 -135.8125 138.613281 -138.6875 135.875 -141.5 C 133.132812 -144.320312 130.351562 -146.8125 127.53125 -148.96875 C 124.71875 -151.125 122.332031 -152.472656 120.375 -153.015625 C 119.195312 -153.410156 117.585938 -153.644531 115.546875 -153.71875 C 113.515625 -153.800781 111.875 -153.84375 110.625 -153.84375 L 107.578125 -157.609375 C 107.023438 -157.835938 106.0625 -158.164062 104.6875 -158.59375 C 103.320312 -159.03125 101.875 -159.460938 100.34375 -159.890625 C 98.820312 -160.328125 97.316406 -160.679688 95.828125 -160.953125 C 94.335938 -161.222656 93.203125 -161.359375 92.421875 -161.359375 C 90.859375 -161.359375 88.84375 -161.203125 86.375 -160.890625 C 83.90625 -160.578125 81.378906 -160.109375 78.796875 -159.484375 C 76.210938 -158.859375 73.820312 -158.070312 71.625 -157.125 C 69.4375 -156.1875 67.835938 -155.09375 66.828125 -153.84375 L 66.234375 -151.96875 C 65.609375 -151.5 64.960938 -151.125 64.296875 -150.84375 C 63.628906 -150.570312 63 -150.257812 62.40625 -149.90625 C 61.820312 -149.550781 61.316406 -149.117188 60.890625 -148.609375 C 60.460938 -148.109375 60.128906 -147.347656 59.890625 -146.328125 C 58.085938 -145.859375 56.851562 -145.425781 56.1875 -145.03125 C 55.53125 -144.644531 55.0625 -144.21875 54.78125 -143.75 C 54.507812 -143.28125 54.21875 -142.75 53.90625 -142.15625 C 53.59375 -141.570312 52.890625 -140.847656 51.796875 -139.984375 C 48.734375 -137.953125 46.265625 -135.328125 44.390625 -132.109375 C 42.515625 -128.898438 41.085938 -125.414062 40.109375 -121.65625 C 39.128906 -117.90625 38.460938 -114.050781 38.109375 -110.09375 C 37.753906 -106.144531 37.578125 -102.488281 37.578125 -99.125 L 38.171875 -90.78125 C 38.171875 -90.070312 37.851562 -89.226562 37.21875 -88.25 C 36.59375 -87.269531 36.28125 -86.234375 36.28125 -85.140625 Z M 36.28125 -85.140625 "/></g></g></g></svg>